<svg width="667" height="217" viewBox="0 0 667 217" fill="none" xmlns="http://www.w3.org/2000/svg">
<path fill-rule="evenodd" clip-rule="evenodd" d="M0 33.875C1 35.875 3.08333 37.5 6.25 38.75C13.6667 26.75 26.0417 19.625 43.375 17.375C43.7083 28.2917 43.875 40.4167 43.875 53.75C43.875 69.7083 43.6667 82.9375 43.25 93.4375C43.1667 94.8958 38.6042 96.0833 29.5625 97C28.5208 99.5 28.5208 102.188 29.5625 105.062C44.8958 104.729 54.2292 104.562 57.5625 104.562C59.7708 104.562 67.625 104.729 81.125 105.062C82 102.354 82.0833 99.6667 81.375 97C72.1667 96.0833 67.5208 94.8542 67.4375 93.3125C67.0208 85.0208 66.8125 71.8333 66.8125 53.75C66.8125 39.5833 66.9792 27.3333 67.3125 17C77.8958 17 86.5 19.0833 93.125 23.25C99.7917 27.375 104.833 32.5417 108.25 38.75C111.75 37.5 113.979 35.875 114.938 33.875C109.479 24.8333 106.229 16.2292 105.188 8.0625H53.125H9.8125C9.39583 11.3125 8.64583 14.5417 7.5625 17.75C6.52083 20.9167 5.58333 23.2708 4.75 24.8125C3.95833 26.3542 2.375 29.375 0 33.875ZM45.8125 14.1875L23.9375 14.8125C22.0625 14.8125 20 15.8958 17.75 18.0625C15.5417 20.1875 13.625 22.4167 12 24.75C10.375 27.0833 8.08333 30.6875 5.125 35.5625C4 35.1458 3.27083 34.5833 2.9375 33.875C3.10417 33.625 3.6875 32.5 4.6875 30.5C5.72917 28.5 6.39583 27.2083 6.6875 26.625C6.97917 26 7.52083 24.8125 8.3125 23.0625C9.14583 21.3125 9.72917 19.9167 10.0625 18.875C10.4375 17.7917 10.8333 16.4792 11.25 14.9375C11.6667 13.3958 11.9583 11.9167 12.125 10.5C16.5833 10.5 23.3958 10.5208 32.5625 10.5625C41.7292 10.6042 48.5833 10.625 53.125 10.625H74.5C84.7083 10.625 92.3958 12.375 97.5625 15.875C102.729 19.375 107.396 25.375 111.562 33.875C111.229 34.5833 110.521 35.1458 109.438 35.5625C102.188 21.9792 88.1875 14.9375 67.4375 14.4375L57.8125 14.1875C57.3958 24.5208 57.1875 37.7083 57.1875 53.75C57.1875 66.375 57.3958 79.6042 57.8125 93.4375C57.8958 96.6042 64.8542 98.6042 78.6875 99.4375C79.0208 100.646 79.0208 101.625 78.6875 102.375C70.5208 102.125 62 102 53.125 102C45.6667 102 38.3958 102.125 31.3125 102.375C30.9792 101.083 30.9792 100.104 31.3125 99.4375C40.8958 98.5208 45.7292 96.5208 45.8125 93.4375C46.2292 83.1042 46.4375 69.875 46.4375 53.75C46.4375 41.2083 46.2292 28.0208 45.8125 14.1875ZM134.75 58.875C133.625 57.6667 132.083 56.8958 130.125 56.5625C132.167 53.8958 135.542 52.5625 140.25 52.5625C142.458 52.5625 144.25 53.3333 145.625 54.875C147.042 56.4167 147.75 58.8542 147.75 62.1875V69C135.208 72.2083 126.875 75.3333 122.75 78.375C118.625 81.4167 116.562 86 116.562 92.125C116.562 93.5833 116.771 95.0208 117.188 96.4375C117.604 97.8542 118.312 99.375 119.312 101C120.354 102.625 121.979 103.917 124.188 104.875C126.438 105.875 129.146 106.375 132.312 106.375C139.562 106.375 145.438 104.75 149.938 101.5C151.729 104.125 154.375 105.438 157.875 105.438C160.708 105.438 163.188 105.146 165.312 104.562C167.438 103.979 169.292 103.021 170.875 101.688C172.458 100.354 173.667 99.1667 174.5 98.125C175.375 97.0417 176.458 95.5208 177.75 93.5625L179.75 90.125C178.417 87.125 176.042 85.5 172.625 85.25L168.625 85.375V63.5C168.625 55.9583 167 50.6042 163.75 47.4375C160.542 44.2292 154.958 42.625 147 42.625C138.625 42.625 131.833 44.3125 126.625 47.6875C121.458 51.0625 118.875 55.4792 118.875 60.9375C118.875 64.1458 119.875 66.625 121.875 68.375C123.875 70.125 126.104 71 128.562 71C130.938 71 132.854 70.2917 134.312 68.875C135.771 67.4167 136.5 65.5833 136.5 63.375C136.5 61.5417 135.917 60.0417 134.75 58.875ZM150.312 87.9375V74.875C142.312 76.5833 136.896 78.5417 134.062 80.75C131.271 82.9583 129.875 85.7708 129.875 89.1875C129.875 91.3125 130.625 92.9583 132.125 94.125C133.667 95.2917 135.646 95.875 138.062 95.875C142.229 95.875 146.312 93.2292 150.312 87.9375ZM147.75 79.5V87.125C145.208 90.2083 142.833 92.1458 140.625 92.9375C139.333 92.2292 138.688 90.9792 138.688 89.1875C138.688 84.9375 141.708 81.7083 147.75 79.5ZM125.5 62.3125C126.083 64.4375 127.104 65.5 128.562 65.5C129.146 66.625 129.146 67.6042 128.562 68.4375C126.688 68.4375 125.021 67.7917 123.562 66.5C122.104 65.1667 121.375 63.3125 121.375 60.9375C121.375 56.3125 123.458 52.5417 127.625 49.625C131.833 46.6667 136.792 45.1875 142.5 45.1875C148.833 45.1875 153.292 46.5833 155.875 49.375C158.5 52.125 159.812 56.8333 159.812 63.5V89.4375C159.812 91.7708 160.667 92.9792 162.375 93.0625C164.75 93.1458 167.083 91.4375 169.375 87.9375C170.917 88.1042 171.958 88.7708 172.5 89.9375C172.125 90.3958 171.542 91.25 170.75 92.5C169.958 93.7083 169.354 94.6042 168.938 95.1875C168.562 95.7292 167.625 96.8542 166.125 98.5625C164.667 100.271 163.208 101.417 161.75 102C160.292 102.583 159 102.875 157.875 102.875C153.375 102.875 150.854 99.8125 150.312 93.6875C150.229 93.7708 149.688 94.2917 148.688 95.25C147.729 96.1667 147.042 96.8125 146.625 97.1875C146.208 97.5625 145.062 98.4583 143.188 99.875C141.354 101.25 139.562 102.25 137.812 102.875C136.104 103.5 134.271 103.812 132.312 103.812C127.354 103.812 123.917 102.583 122 100.125C120.083 97.625 119.125 94.9583 119.125 92.125C119.125 86.75 121.25 82.6667 125.5 79.875C129.75 77.0417 138.021 74.0417 150.312 70.875V62.1875C150.312 58.0208 149.5 54.8958 147.875 52.8125C146.25 50.6875 144.083 49.625 141.375 49.625C135.667 49.625 131.396 50.875 128.562 53.375C125.688 55.9167 124.667 58.8958 125.5 62.3125ZM231.312 52.75H206.75V86.125C206.75 92.7083 210.375 96 217.625 96C221.292 96 225.083 94.25 229 90.75C230 90.8333 230.688 91.3333 231.062 92.25C229.271 95.5 226.562 98.25 222.938 100.5C219.312 102.708 215.354 103.812 211.062 103.812C200.979 103.812 195.938 97.7083 195.938 85.5V52.75H188.312C188.021 51.7083 188.021 50.75 188.312 49.875C190.688 48.5417 192.5 47.4583 193.75 46.625C195.042 45.75 196.625 44.25 198.5 42.125C200.375 39.9583 202.083 37.4375 203.625 34.5625C204.667 34.1042 205.708 34.1042 206.75 34.5625V48.25H231.312C231.896 49.625 231.896 51.125 231.312 52.75ZM233.875 92.375C232.75 89.8333 230.875 88.3958 228.25 88.0625C225.167 90.9375 222.375 92.6458 219.875 93.1875C217 92.4792 215.562 90.125 215.562 86.125V55.25H233.75C235.083 51.9583 235.083 48.7708 233.75 45.6875H215.562V32.75C210.354 30.9583 205.792 30.875 201.875 32.5C200.333 35.5 198.562 38.0625 196.562 40.1875C194.562 42.3125 192.896 43.8542 191.562 44.8125C190.229 45.7292 188.292 46.9167 185.75 48.375C185.125 50.75 185.125 53.0417 185.75 55.25H193.438V85.5C193.438 99.4167 199.312 106.375 211.062 106.375C215.854 106.375 220.312 105.021 224.438 102.312C228.562 99.6458 231.708 96.3333 233.875 92.375ZM288.062 52.75H263.5V86.125C263.5 92.7083 267.125 96 274.375 96C278.042 96 281.833 94.25 285.75 90.75C286.75 90.8333 287.438 91.3333 287.812 92.25C286.021 95.5 283.312 98.25 279.688 100.5C276.062 102.708 272.104 103.812 267.812 103.812C257.729 103.812 252.688 97.7083 252.688 85.5V52.75H245.062C244.771 51.7083 244.771 50.75 245.062 49.875C247.438 48.5417 249.25 47.4583 250.5 46.625C251.792 45.75 253.375 44.25 255.25 42.125C257.125 39.9583 258.833 37.4375 260.375 34.5625C261.417 34.1042 262.458 34.1042 263.5 34.5625V48.25H288.062C288.646 49.625 288.646 51.125 288.062 52.75ZM290.625 92.375C289.5 89.8333 287.625 88.3958 285 88.0625C281.917 90.9375 279.125 92.6458 276.625 93.1875C273.75 92.4792 272.312 90.125 272.312 86.125V55.25H290.5C291.833 51.9583 291.833 48.7708 290.5 45.6875H272.312V32.75C267.104 30.9583 262.542 30.875 258.625 32.5C257.083 35.5 255.312 38.0625 253.312 40.1875C251.312 42.3125 249.646 43.8542 248.312 44.8125C246.979 45.7292 245.042 46.9167 242.5 48.375C241.875 50.75 241.875 53.0417 242.5 55.25H250.188V85.5C250.188 99.4167 256.062 106.375 267.812 106.375C272.604 106.375 277.062 105.021 281.188 102.312C285.312 99.6458 288.458 96.3333 290.625 92.375ZM340.625 55.4375C338.125 51.3125 334.729 49.25 330.438 49.25C328.062 49.25 325.896 49.7708 323.938 50.8125C322.021 51.8125 320.375 53.3542 319 55.4375C317.667 57.4792 316.625 60.1042 315.875 63.3125C315.125 66.4792 314.75 70.2083 314.75 74.5C314.75 78.8333 315.125 82.5833 315.875 85.75C316.625 88.875 317.667 91.4792 319 93.5625C320.375 95.6458 322.021 97.1875 323.938 98.1875C325.896 99.1875 328.062 99.6875 330.438 99.6875C334.729 99.6875 338.125 97.6458 340.625 93.5625C343.167 89.4792 344.438 83.125 344.438 74.5C344.438 65.875 343.167 59.5208 340.625 55.4375ZM340.875 101.625C337.792 103.083 334.312 103.812 330.438 103.812C326.312 103.812 322.583 103.104 319.25 101.688C315.917 100.229 313.083 98.2083 310.75 95.625C308.458 93 306.688 89.8958 305.438 86.3125C304.188 82.7292 303.562 78.7917 303.562 74.5C303.562 70.25 304.188 66.3333 305.438 62.75C306.688 59.125 308.458 56.0208 310.75 53.4375C313.083 50.8542 315.917 48.8333 319.25 47.375C322.583 45.9167 326.312 45.1875 330.438 45.1875C334.312 45.1875 337.792 45.9167 340.875 47.375C343.958 48.8333 346.583 50.875 348.75 53.5C350.958 56.0833 352.646 59.1667 353.812 62.75C354.979 66.3333 355.562 70.25 355.562 74.5C355.562 78.75 354.979 82.6667 353.812 86.25C352.646 89.8333 350.958 92.9375 348.75 95.5625C346.583 98.1458 343.958 100.167 340.875 101.625ZM346.062 44.9375C342.146 43.3958 337.667 42.625 332.625 42.625C327.625 42.625 323.167 43.3958 319.25 44.9375C315.333 46.4792 312.021 48.6667 309.312 51.5C306.604 54.2917 304.542 57.6458 303.125 61.5625C301.708 65.4792 301 69.7917 301 74.5C301 79.2083 301.708 83.5208 303.125 87.4375C304.542 91.3125 306.583 94.6667 309.25 97.5C311.958 100.292 315.271 102.458 319.188 104C323.146 105.583 327.625 106.375 332.625 106.375C337.667 106.375 342.167 105.583 346.125 104C350.083 102.458 353.396 100.292 356.062 97.5C358.771 94.6667 360.833 91.2917 362.25 87.375C363.667 83.4583 364.375 79.1667 364.375 74.5C364.375 69.7917 363.667 65.4792 362.25 61.5625C360.833 57.6458 358.771 54.2917 356.062 51.5C353.354 48.6667 350.021 46.4792 346.062 44.9375ZM332.625 96.875C326.583 95.4167 323.562 87.9583 323.562 74.5C323.562 61.1667 326.583 53.6875 332.625 52.0625C338.792 53.6875 341.875 61.1667 341.875 74.5C341.875 87.9583 338.792 95.4167 332.625 96.875ZM423.637 12.8789C426.317 11.5166 429.35 10.7036 432.733 10.4399C436.117 10.7036 439.149 11.5166 441.83 12.8789C444.555 14.2412 446.928 15.999 448.949 18.1523C451.015 20.3057 452.75 22.7886 454.157 25.6011C455.607 28.3696 456.771 31.3359 457.65 34.5C458.573 37.6201 459.232 40.8501 459.628 44.1899C460.067 47.4858 460.287 50.7378 460.287 53.9458C460.287 57.1099 460.067 60.3618 459.628 63.7017C459.232 66.9976 458.573 70.2056 457.65 73.3257C456.771 76.4019 455.607 79.3462 454.157 82.1587C452.75 84.9272 451.015 87.3882 448.949 89.5415C446.928 91.6509 444.577 93.3867 441.896 94.749C439.215 96.0674 436.161 96.8584 432.733 97.1221C429.394 96.8584 426.383 96.0674 423.703 94.749C421.066 93.4307 418.715 91.7168 416.649 89.6074C414.628 87.4541 412.892 84.9932 411.442 82.2246C410.036 79.4561 408.871 76.5117 407.948 73.3916C407.025 70.2715 406.344 67.0635 405.905 63.7676C405.509 60.4277 405.312 57.1538 405.312 53.9458C405.312 50.7378 405.509 47.4858 405.905 44.1899C406.344 40.8501 407.003 37.6201 407.882 34.5C408.805 31.3799 409.97 28.4355 411.376 25.667C412.826 22.8545 414.562 20.3716 416.583 18.2183C418.605 16.021 420.956 14.2412 423.637 12.8789ZM418.759 98.0449C422.187 99.3193 426.076 99.9565 430.426 99.9565C434.469 99.9565 438.073 99.3193 441.237 98.0449C444.401 96.7266 447.191 94.9468 449.608 92.7056C452.025 90.4644 454.069 87.8496 455.739 84.8613C457.453 81.8291 458.837 78.6211 459.892 75.2373C460.99 71.8096 461.781 68.2939 462.265 64.6904C462.748 61.043 462.99 57.4614 462.99 53.9458C462.99 50.4302 462.726 46.8486 462.199 43.2012C461.715 39.5098 460.924 35.9502 459.826 32.5225C458.771 29.0947 457.387 25.8647 455.673 22.8325C453.959 19.8003 451.894 17.1636 449.477 14.9224C447.104 12.6372 444.335 10.8574 441.171 9.58301C438.007 8.26465 434.425 7.60547 430.426 7.60547C426.076 7.60547 422.165 8.26465 418.693 9.58301C415.265 10.9014 412.255 12.6812 409.662 14.9224C407.069 17.1636 404.85 19.8003 403.004 22.8325C401.159 25.8647 399.665 29.0947 398.522 32.5225C397.379 35.9502 396.544 39.5098 396.017 43.2012C395.49 46.8486 395.226 50.4302 395.226 53.9458C395.226 57.4614 395.49 61.0649 396.017 64.7563C396.544 68.4038 397.379 71.9414 398.522 75.3691C399.708 78.7529 401.203 81.939 403.004 84.9272C404.85 87.9155 407.069 90.5303 409.662 92.7715C412.299 94.9688 415.331 96.7266 418.759 98.0449ZM440.248 103.78C436.732 104.395 433.458 104.703 430.426 104.703C427.13 104.703 423.615 104.373 419.879 103.714C416.144 103.055 412.431 101.956 408.739 100.418C405.048 98.8799 401.488 96.8584 398.061 94.3535C394.677 91.8047 391.688 88.6626 389.096 84.9272C386.503 81.1479 384.416 76.7095 382.833 71.6118C381.295 66.5142 380.526 60.6255 380.526 53.9458C380.526 47.0464 381.339 41.0039 382.965 35.8184C384.591 30.5889 386.745 26.0845 389.425 22.3052C392.106 18.5259 395.182 15.3838 398.654 12.8789C402.125 10.374 405.707 8.39648 409.398 6.94629C413.09 5.45215 416.759 4.41943 420.407 3.84814C424.054 3.23291 427.394 2.92529 430.426 2.92529C433.546 2.92529 436.864 3.27686 440.38 3.97998C443.939 4.63916 447.477 5.75977 450.993 7.3418C454.508 8.87988 457.87 10.9233 461.078 13.4722C464.286 16.021 467.121 19.1851 469.582 22.9644C472.042 26.7437 473.998 31.2041 475.448 36.3457C476.942 41.4434 477.689 47.3101 477.689 53.9458C477.689 60.7134 476.942 66.6899 475.448 71.8755C473.954 77.0171 471.955 81.4775 469.45 85.2568C466.989 88.9922 464.132 92.1123 460.88 94.6172C457.628 97.1221 454.245 99.1216 450.729 100.616C447.257 102.11 443.764 103.165 440.248 103.78ZM409.267 103.78C416.078 106.373 423.9 107.669 432.733 107.669C441.039 107.669 448.576 106.482 455.343 104.109C462.155 101.78 467.956 98.3306 472.746 93.7603C477.58 89.1899 481.293 83.5869 483.886 76.9512C486.522 70.2715 487.841 62.603 487.841 53.9458C487.841 45.3325 486.522 37.686 483.886 31.0063C481.293 24.3267 477.58 18.7236 472.746 14.1973C467.956 9.62695 462.155 6.15527 455.343 3.78223C448.576 1.40918 441.039 0.222656 432.733 0.222656C423.9 0.222656 416.078 1.51904 409.267 4.11182C402.455 6.66064 396.72 10.2861 392.062 14.9883C387.404 19.6465 383.866 25.2935 381.449 31.9292C379.032 38.521 377.824 45.8599 377.824 53.9458C377.824 62.0317 379.032 69.3926 381.449 76.0283C383.866 82.6201 387.404 88.2671 392.062 92.9692C396.72 97.6274 402.455 101.231 409.267 103.78ZM299 127C299.375 126.083 300.625 125.583 302.75 125.5C303.792 122.833 303.792 120.354 302.75 118.062H261.312C260.271 120.354 260.271 122.833 261.312 125.5C265.479 125.917 268.604 126.562 270.688 127.438C272.812 128.271 274.292 129.708 275.125 131.75L310.062 216.375H316.312L332.625 173.188L349.375 216.375H355.75L387.75 131.75C388.542 129.792 389.875 128.333 391.75 127.375C393.542 126.542 397.583 125.917 403.875 125.5C404.917 122.833 404.917 120.354 403.875 118.062H366.75C365.75 120.354 365.75 122.833 366.75 125.5C370.958 125.833 373.75 126.396 375.125 127.188C376.542 127.938 376.833 129.458 376 131.75L358.438 178.75L340.562 131.75C339.854 129.875 340.188 128.417 341.562 127.375C342.938 126.292 345.875 125.667 350.375 125.5C351.417 122.833 351.417 120.354 350.375 118.062H306.25C305.208 120.354 305.208 122.833 306.25 125.5C309.125 125.667 311.229 126.188 312.562 127.062C313.896 127.896 315.021 129.417 315.938 131.625L326.688 158.625L319.062 179.125L299.812 131.75C298.896 129.458 298.625 127.875 299 127ZM263.5 120.125H300.625C301.125 120.958 301.125 121.938 300.625 123.062C295.167 123.479 291.583 124.167 289.875 125.125C288.167 126.042 288.021 127.917 289.438 130.75L315.688 195.375L329.375 158.625L318.375 130.75C317.375 128.083 316.125 126.208 314.625 125.125C313.125 124 311.062 123.312 308.438 123.062C307.896 121.938 307.896 120.958 308.438 120.125H347.688C348.229 120.958 348.229 121.938 347.688 123.062C341.062 123.396 336.292 124.208 333.375 125.5C330.458 126.75 329.479 128.5 330.438 130.75L355.125 195.375L379.438 129.938C380.229 127.979 379.938 126.458 378.562 125.375C377.438 124.417 374.396 123.646 369.438 123.062C368.938 121.938 368.938 120.958 369.438 120.125H401.188C401.729 120.958 401.729 121.938 401.188 123.062C396.688 123.396 393.208 124.042 390.75 125C388.333 125.917 386.667 127.562 385.75 129.938L354 213.812H351.188L332.312 166.188L314.562 213.812H311.75L277.438 130.75C275.646 126.375 271 123.812 263.5 123.062C262.958 121.938 262.958 120.958 263.5 120.125ZM447.75 165.438C445.25 161.312 441.854 159.25 437.562 159.25C435.188 159.25 433.021 159.771 431.062 160.812C429.146 161.812 427.5 163.354 426.125 165.438C424.792 167.479 423.75 170.104 423 173.312C422.25 176.479 421.875 180.208 421.875 184.5C421.875 188.833 422.25 192.583 423 195.75C423.75 198.875 424.792 201.479 426.125 203.562C427.5 205.646 429.146 207.188 431.062 208.188C433.021 209.188 435.188 209.688 437.562 209.688C441.854 209.688 445.25 207.646 447.75 203.562C450.292 199.479 451.562 193.125 451.562 184.5C451.562 175.875 450.292 169.521 447.75 165.438ZM448 211.625C444.917 213.083 441.438 213.812 437.562 213.812C433.438 213.812 429.708 213.104 426.375 211.688C423.042 210.229 420.208 208.208 417.875 205.625C415.583 203 413.812 199.896 412.562 196.312C411.312 192.729 410.688 188.792 410.688 184.5C410.688 180.25 411.312 176.333 412.562 172.75C413.812 169.125 415.583 166.021 417.875 163.438C420.208 160.854 423.042 158.833 426.375 157.375C429.708 155.917 433.438 155.188 437.562 155.188C441.438 155.188 444.917 155.917 448 157.375C451.083 158.833 453.708 160.875 455.875 163.5C458.083 166.083 459.771 169.167 460.938 172.75C462.104 176.333 462.688 180.25 462.688 184.5C462.688 188.75 462.104 192.667 460.938 196.25C459.771 199.833 458.083 202.938 455.875 205.562C453.708 208.146 451.083 210.167 448 211.625ZM453.188 154.938C449.271 153.396 444.792 152.625 439.75 152.625C434.75 152.625 430.292 153.396 426.375 154.938C422.458 156.479 419.146 158.667 416.438 161.5C413.729 164.292 411.667 167.646 410.25 171.562C408.833 175.479 408.125 179.792 408.125 184.5C408.125 189.208 408.833 193.521 410.25 197.438C411.667 201.312 413.708 204.667 416.375 207.5C419.083 210.292 422.396 212.458 426.312 214C430.271 215.583 434.75 216.375 439.75 216.375C444.792 216.375 449.292 215.583 453.25 214C457.208 212.458 460.521 210.292 463.188 207.5C465.896 204.667 467.958 201.292 469.375 197.375C470.792 193.458 471.5 189.167 471.5 184.5C471.5 179.792 470.792 175.479 469.375 171.562C467.958 167.646 465.896 164.292 463.188 161.5C460.479 158.667 457.146 156.479 453.188 154.938ZM439.75 206.875C433.708 205.417 430.688 197.958 430.688 184.5C430.688 171.167 433.708 163.688 439.75 162.062C445.917 163.688 449 171.167 449 184.5C449 197.958 445.917 205.417 439.75 206.875ZM511.938 165.625C508.688 169.25 506.542 172.979 505.5 176.812C505.5 186.104 505.688 194.979 506.062 203.438C506.146 206.521 511.125 208.521 521 209.438C521.583 210.562 521.583 211.542 521 212.375C508.125 211.875 496.229 211.875 485.312 212.375C484.688 211.542 484.688 210.562 485.312 209.438C492.312 208.521 495.854 206.521 495.938 203.438C496.354 194.062 496.396 181.604 496.062 166.062C493.646 164.604 489.625 163.75 484 163.5C483.75 162.542 483.75 161.562 484 160.562C491.333 159.771 497.792 158.062 503.375 155.438C504.458 155.854 505.167 156.396 505.5 157.062V167.812C507.917 164.604 510.75 161.708 514 159.125C517.292 156.5 520.562 155.188 523.812 155.188C526.312 155.188 528.333 155.938 529.875 157.438C531.458 158.896 532.25 160.917 532.25 163.5C532.25 165.958 531.521 167.875 530.062 169.25C528.646 170.625 526.812 171.312 524.562 171.312C523.979 170.188 523.979 169.208 524.562 168.375C526.729 167.75 527.812 166.292 527.812 164C527.812 161.458 525.833 160.188 521.875 160.188C518.5 160.188 515.188 162 511.938 165.625ZM523.312 207.125C517.771 206.208 514.958 204.938 514.875 203.312C514.542 195.021 514.375 186.354 514.375 177.312C514.792 175.438 515.854 173.354 517.562 171.062C519.438 172.938 521.771 173.875 524.562 173.875C527.562 173.875 530.021 172.958 531.938 171.125C533.854 169.292 534.812 166.75 534.812 163.5C534.812 160.083 533.792 157.417 531.75 155.5C529.708 153.583 527.062 152.625 523.812 152.625C521.021 152.625 517.875 153.896 514.375 156.438C512.125 154.229 508.75 152.875 504.25 152.375C496.458 155.708 489.083 157.583 482.125 158C481.167 160.792 481.167 163.438 482.125 165.938C486.958 166.188 490.75 166.729 493.5 167.562C493.917 179.521 493.875 191.438 493.375 203.312C493.292 204.938 489.75 206.208 482.75 207.125C481.375 209.708 481.458 212.229 483 214.688C492.042 214.354 505.396 214.479 523.062 215.062C524.604 212.521 524.688 209.875 523.312 207.125ZM567.375 203.125C567.458 206.208 572.458 208.208 582.375 209.125C582.792 210.167 582.792 211.188 582.375 212.188C568.208 211.854 556.292 211.854 546.625 212.188C546.208 211.188 546.208 210.167 546.625 209.125C553.625 208.208 557.167 206.208 557.25 203.125C557.667 184.125 557.708 158.958 557.375 127.625C554.917 126.208 551.333 125.354 546.625 125.062C546.375 124.146 546.375 123.167 546.625 122.125C552.875 121.458 558.896 119.75 564.688 117C565.812 117.458 566.542 118.021 566.875 118.688C566.792 151.896 566.958 180.042 567.375 203.125ZM584.625 214.375C585.333 211.917 585.333 209.396 584.625 206.812C579.083 206.146 576.271 204.875 576.188 203C575.688 183.5 575.521 155.188 575.688 118.062C573.479 115.646 570.104 114.271 565.562 113.938C557.729 117.354 550.646 119.229 544.312 119.562C543.396 122.396 543.396 125.042 544.312 127.5C548.521 127.75 552.021 128.312 554.812 129.188C555.229 153.938 555.188 178.542 554.688 203C554.604 204.875 551.146 206.146 544.312 206.812C543.646 209.396 543.646 211.917 544.312 214.375C555.146 214.042 568.583 214.042 584.625 214.375ZM613.438 199.625C616.021 203.625 619.792 205.625 624.75 205.625C628.917 205.625 633.312 203.396 637.938 198.938C638.021 194.854 638.062 187.125 638.062 175.75V166.688C635.146 161.729 630.75 159.25 624.875 159.25C623.25 159.25 621.646 159.604 620.062 160.312C618.479 160.979 616.854 162.146 615.188 163.812C613.521 165.479 612.167 168.083 611.125 171.625C610.125 175.167 609.625 179.417 609.625 184.375C609.625 190.5 610.896 195.583 613.438 199.625ZM665.312 214.938C666.854 212.396 666.938 209.75 665.562 207C659.771 206.333 656.833 205.104 656.75 203.312C656.375 194.021 656.188 165.604 656.188 118.062C653.979 115.646 650.625 114.271 646.125 113.938C637.167 117.188 629.771 119.062 623.938 119.562C623.021 122.396 623.021 125.042 623.938 127.5C628.812 127.75 632.625 128.312 635.375 129.188C635.375 138.396 635.417 146.292 635.5 152.875C633.625 152.708 630.792 152.625 627 152.625C621.458 152.625 616.521 153.688 612.188 155.812C607.896 157.938 604.542 160.708 602.125 164.125C599.708 167.542 597.896 171.167 596.688 175C595.479 178.833 594.875 182.771 594.875 186.812C594.875 195.938 597.062 203.146 601.438 208.438C605.854 213.729 611.604 216.375 618.688 216.375C625.854 216.375 631.458 215.042 635.5 212.375C635.917 213.417 636.896 214.271 638.438 214.938C645.688 214.604 654.646 214.604 665.312 214.938ZM627.312 162.062C630.688 162.604 633.417 164.354 635.5 167.312V175.75C635.5 186.417 635.458 193.812 635.375 197.938C632.458 200.562 629.625 202.188 626.875 202.812C623.458 202.104 620.896 200.062 619.188 196.688C617.521 193.312 616.688 189.208 616.688 184.375C616.688 176.917 617.729 171.5 619.812 168.125C621.896 164.708 624.396 162.688 627.312 162.062ZM658.375 208.812C659.5 208.979 661.125 209.146 663.25 209.312C663.833 210.438 663.833 211.417 663.25 212.25C655.75 212 650.854 211.875 648.562 211.875C647.938 211.875 647.208 211.896 646.375 211.938C645.583 211.979 644.5 212.042 643.125 212.125C641.792 212.208 640.438 212.292 639.062 212.375C638.479 212.042 637.958 211.396 637.5 210.438C637.667 209.438 637.75 207.188 637.75 203.688C630.958 210.438 624.271 213.812 617.688 213.812C612.479 213.812 608.021 211.396 604.312 206.562C600.604 201.729 598.75 195.146 598.75 186.812C598.75 183.104 599.271 179.479 600.312 175.938C601.396 172.396 603 169.042 605.125 165.875C607.25 162.667 610.188 160.083 613.938 158.125C617.729 156.167 622.083 155.188 627 155.188C630.083 155.188 633.771 155.854 638.062 157.188C637.979 149.271 637.938 139.417 637.938 127.625C635.521 126.208 631.5 125.354 625.875 125.062C625.625 124.146 625.625 123.167 625.875 122.125C633.208 121.375 639.646 119.667 645.188 117C646.229 117.375 646.958 117.938 647.375 118.688C647.375 165.896 647.542 194.146 647.875 203.438C647.875 204.521 648.354 205.438 649.312 206.188C650.312 206.896 651.792 207.479 653.75 207.938C655.75 208.354 657.292 208.646 658.375 208.812Z" fill="white"/>
</svg>
