<svg width="229" height="69" viewBox="0 0 229 69" fill="none" xmlns="http://www.w3.org/2000/svg">
<path fill-rule="evenodd" clip-rule="evenodd" d="M0.6875 9.71094C1 10.3359 1.65104 10.8438 2.64062 11.2344C4.95833 7.48438 8.82552 5.25781 14.2422 4.55469C14.3464 7.96615 14.3984 11.7552 14.3984 15.9219C14.3984 20.9089 14.3333 25.043 14.2031 28.3242C14.1771 28.7799 12.7513 29.151 9.92578 29.4375C9.60026 30.2188 9.60026 31.0586 9.92578 31.957C14.7174 31.8529 17.6341 31.8008 18.6758 31.8008C19.3659 31.8008 21.8203 31.8529 26.0391 31.957C26.3125 31.1107 26.3385 30.2708 26.1172 29.4375C23.2396 29.151 21.7878 28.7669 21.7617 28.2852C21.6315 25.694 21.5664 21.5729 21.5664 15.9219C21.5664 11.4948 21.6185 7.66667 21.7227 4.4375C25.0299 4.4375 27.7188 5.08854 29.7891 6.39062C31.8724 7.67969 33.4479 9.29427 34.5156 11.2344C35.6094 10.8438 36.306 10.3359 36.6055 9.71094C34.8997 6.88542 33.8841 4.19661 33.5586 1.64453H17.2891H3.75391C3.6237 2.66016 3.38932 3.66927 3.05078 4.67188C2.72526 5.66146 2.43229 6.39714 2.17188 6.87891C1.92448 7.36068 1.42969 8.30469 0.6875 9.71094ZM15.0039 3.55859L8.16797 3.75391C7.58203 3.75391 6.9375 4.09245 6.23438 4.76953C5.54427 5.43359 4.94531 6.13021 4.4375 6.85938C3.92969 7.58854 3.21354 8.71484 2.28906 10.2383C1.9375 10.1081 1.70964 9.93229 1.60547 9.71094C1.65755 9.63281 1.83984 9.28125 2.15234 8.65625C2.47786 8.03125 2.6862 7.6276 2.77734 7.44531C2.86849 7.25 3.03776 6.87891 3.28516 6.33203C3.54557 5.78516 3.72786 5.34896 3.83203 5.02344C3.94922 4.6849 4.07292 4.27474 4.20312 3.79297C4.33333 3.3112 4.42448 2.84896 4.47656 2.40625C5.86979 2.40625 7.9987 2.41276 10.8633 2.42578C13.7279 2.4388 15.8698 2.44531 17.2891 2.44531H23.9688C27.1589 2.44531 29.5612 2.99219 31.1758 4.08594C32.7904 5.17969 34.2487 7.05469 35.5508 9.71094C35.4466 9.93229 35.2253 10.1081 34.8867 10.2383C32.6211 5.99349 28.2461 3.79297 21.7617 3.63672L18.7539 3.55859C18.6237 6.78776 18.5586 10.9089 18.5586 15.9219C18.5586 19.8672 18.6237 24.0013 18.7539 28.3242C18.7799 29.3138 20.9544 29.9388 25.2773 30.1992C25.3815 30.5768 25.3815 30.8828 25.2773 31.1172C22.7253 31.0391 20.0625 31 17.2891 31C14.9583 31 12.6862 31.0391 10.4727 31.1172C10.3685 30.7135 10.3685 30.4076 10.4727 30.1992C13.4674 29.9128 14.9779 29.2878 15.0039 28.3242C15.1341 25.0951 15.1992 20.9609 15.1992 15.9219C15.1992 12.0026 15.1341 7.88151 15.0039 3.55859ZM42.7969 17.5234C42.4453 17.1458 41.9635 16.9049 41.3516 16.8008C41.9896 15.9674 43.0443 15.5508 44.5156 15.5508C45.2057 15.5508 45.7656 15.7917 46.1953 16.2734C46.638 16.7552 46.8594 17.5169 46.8594 18.5586V20.6875C42.9401 21.6901 40.3359 22.6667 39.0469 23.6172C37.7578 24.5677 37.1133 26 37.1133 27.9141C37.1133 28.3698 37.1784 28.819 37.3086 29.2617C37.4388 29.7044 37.6602 30.1797 37.9727 30.6875C38.2982 31.1953 38.806 31.599 39.4961 31.8984C40.1992 32.2109 41.0456 32.3672 42.0352 32.3672C44.3008 32.3672 46.1367 31.8594 47.543 30.8438C48.1029 31.6641 48.9297 32.0742 50.0234 32.0742C50.9089 32.0742 51.6836 31.9831 52.3477 31.8008C53.0117 31.6185 53.5911 31.319 54.0859 30.9023C54.5807 30.4857 54.9583 30.1146 55.2188 29.7891C55.4922 29.4505 55.8307 28.9753 56.2344 28.3633L56.8594 27.2891C56.4427 26.3516 55.7005 25.8438 54.6328 25.7656L53.3828 25.8047V18.9688C53.3828 16.612 52.875 14.9388 51.8594 13.9492C50.8568 12.9466 49.112 12.4453 46.625 12.4453C44.0078 12.4453 41.8854 12.9727 40.2578 14.0273C38.6432 15.082 37.8359 16.4622 37.8359 18.168C37.8359 19.1706 38.1484 19.9453 38.7734 20.4922C39.3984 21.0391 40.0951 21.3125 40.8633 21.3125C41.6055 21.3125 42.2044 21.0911 42.6602 20.6484C43.1159 20.1927 43.3438 19.6198 43.3438 18.9297C43.3438 18.3568 43.1615 17.888 42.7969 17.5234ZM47.6602 26.6055V22.5234C45.1602 23.0573 43.4674 23.6693 42.582 24.3594C41.7096 25.0495 41.2734 25.9284 41.2734 26.9961C41.2734 27.6602 41.5078 28.1745 41.9766 28.5391C42.4583 28.9036 43.0768 29.0859 43.832 29.0859C45.1341 29.0859 46.4102 28.2591 47.6602 26.6055ZM46.8594 23.9688V26.3516C46.0651 27.3151 45.3229 27.9206 44.6328 28.168C44.2292 27.9466 44.0273 27.556 44.0273 26.9961C44.0273 25.668 44.9714 24.6589 46.8594 23.9688ZM39.9062 18.5977C40.0885 19.2617 40.4076 19.5938 40.8633 19.5938C41.0456 19.9453 41.0456 20.2513 40.8633 20.5117C40.2773 20.5117 39.7565 20.3099 39.3008 19.9062C38.8451 19.4896 38.6172 18.9102 38.6172 18.168C38.6172 16.7227 39.2682 15.5443 40.5703 14.6328C41.8854 13.7083 43.4349 13.2461 45.2188 13.2461C47.1979 13.2461 48.5911 13.6823 49.3984 14.5547C50.2188 15.4141 50.6289 16.8854 50.6289 18.9688V27.0742C50.6289 27.8034 50.8958 28.181 51.4297 28.207C52.1719 28.2331 52.901 27.6992 53.6172 26.6055C54.099 26.6576 54.4245 26.8659 54.5938 27.2305C54.4766 27.3737 54.2943 27.6406 54.0469 28.0312C53.7995 28.4089 53.6107 28.6888 53.4805 28.8711C53.3633 29.0404 53.0703 29.3919 52.6016 29.9258C52.1458 30.4596 51.6901 30.8177 51.2344 31C50.7786 31.1823 50.375 31.2734 50.0234 31.2734C48.6172 31.2734 47.8294 30.3164 47.6602 28.4023C47.6341 28.4284 47.4648 28.5911 47.1523 28.8906C46.8529 29.1771 46.638 29.3789 46.5078 29.4961C46.3776 29.6133 46.0195 29.8932 45.4336 30.3359C44.8607 30.7656 44.3008 31.0781 43.7539 31.2734C43.2201 31.4688 42.6471 31.5664 42.0352 31.5664C40.4857 31.5664 39.4115 31.1823 38.8125 30.4141C38.2135 29.6328 37.9141 28.7995 37.9141 27.9141C37.9141 26.2344 38.5781 24.9583 39.9062 24.0859C41.2344 23.2005 43.819 22.263 47.6602 21.2734V18.5586C47.6602 17.2565 47.4062 16.2799 46.8984 15.6289C46.3906 14.9648 45.7135 14.6328 44.8672 14.6328C43.0833 14.6328 41.7487 15.0234 40.8633 15.8047C39.9648 16.599 39.6458 17.5299 39.9062 18.5977ZM72.9727 15.6094H65.2969V26.0391C65.2969 28.0964 66.4297 29.125 68.6953 29.125C69.8411 29.125 71.026 28.5781 72.25 27.4844C72.5625 27.5104 72.7773 27.6667 72.8945 27.9531C72.3346 28.9688 71.4883 29.8281 70.3555 30.5312C69.2227 31.2214 67.9857 31.5664 66.6445 31.5664C63.4935 31.5664 61.918 29.6589 61.918 25.8438V15.6094H59.5352C59.444 15.2839 59.444 14.9844 59.5352 14.7109C60.2773 14.2943 60.8438 13.9557 61.2344 13.6953C61.638 13.4219 62.1328 12.9531 62.7188 12.2891C63.3047 11.612 63.8385 10.8242 64.3203 9.92578C64.6458 9.78255 64.9714 9.78255 65.2969 9.92578V14.2031H72.9727C73.1549 14.6328 73.1549 15.1016 72.9727 15.6094ZM73.7734 27.9922C73.4219 27.1979 72.8359 26.7487 72.0156 26.6445C71.0521 27.543 70.1797 28.0768 69.3984 28.2461C68.5 28.0247 68.0508 27.2891 68.0508 26.0391V16.3906H73.7344C74.151 15.362 74.151 14.3659 73.7344 13.4023H68.0508V9.35938C66.4232 8.79948 64.9974 8.77344 63.7734 9.28125C63.2917 10.2188 62.7383 11.0195 62.1133 11.6836C61.4883 12.3477 60.9674 12.8294 60.5508 13.1289C60.1341 13.4154 59.5286 13.7865 58.7344 14.2422C58.5391 14.9844 58.5391 15.7005 58.7344 16.3906H61.1367V25.8438C61.1367 30.1927 62.9727 32.3672 66.6445 32.3672C68.1419 32.3672 69.5352 31.944 70.8242 31.0977C72.1133 30.2643 73.0964 29.2292 73.7734 27.9922ZM90.707 15.6094H83.0312V26.0391C83.0312 28.0964 84.1641 29.125 86.4297 29.125C87.5755 29.125 88.7604 28.5781 89.9844 27.4844C90.2969 27.5104 90.5117 27.6667 90.6289 27.9531C90.069 28.9688 89.2227 29.8281 88.0898 30.5312C86.957 31.2214 85.7201 31.5664 84.3789 31.5664C81.2279 31.5664 79.6523 29.6589 79.6523 25.8438V15.6094H77.2695C77.1784 15.2839 77.1784 14.9844 77.2695 14.7109C78.0117 14.2943 78.5781 13.9557 78.9688 13.6953C79.3724 13.4219 79.8672 12.9531 80.4531 12.2891C81.0391 11.612 81.5729 10.8242 82.0547 9.92578C82.3802 9.78255 82.7057 9.78255 83.0312 9.92578V14.2031H90.707C90.8893 14.6328 90.8893 15.1016 90.707 15.6094ZM91.5078 27.9922C91.1562 27.1979 90.5703 26.7487 89.75 26.6445C88.7865 27.543 87.9141 28.0768 87.1328 28.2461C86.2344 28.0247 85.7852 27.2891 85.7852 26.0391V16.3906H91.4688C91.8854 15.362 91.8854 14.3659 91.4688 13.4023H85.7852V9.35938C84.1576 8.79948 82.7318 8.77344 81.5078 9.28125C81.026 10.2188 80.4727 11.0195 79.8477 11.6836C79.2227 12.3477 78.7018 12.8294 78.2852 13.1289C77.8685 13.4154 77.263 13.7865 76.4688 14.2422C76.2734 14.9844 76.2734 15.7005 76.4688 16.3906H78.8711V25.8438C78.8711 30.1927 80.707 32.3672 84.3789 32.3672C85.8763 32.3672 87.2695 31.944 88.5586 31.0977C89.8477 30.2643 90.8307 29.2292 91.5078 27.9922ZM107.133 16.4492C106.352 15.1602 105.29 14.5156 103.949 14.5156C103.207 14.5156 102.53 14.6784 101.918 15.0039C101.319 15.3164 100.805 15.7982 100.375 16.4492C99.9583 17.0872 99.6328 17.9076 99.3984 18.9102C99.1641 19.8997 99.0469 21.0651 99.0469 22.4062C99.0469 23.7604 99.1641 24.9323 99.3984 25.9219C99.6328 26.8984 99.9583 27.7122 100.375 28.3633C100.805 29.0143 101.319 29.4961 101.918 29.8086C102.53 30.1211 103.207 30.2773 103.949 30.2773C105.29 30.2773 106.352 29.6393 107.133 28.3633C107.927 27.0872 108.324 25.1016 108.324 22.4062C108.324 19.7109 107.927 17.7253 107.133 16.4492ZM107.211 30.8828C106.247 31.3385 105.16 31.5664 103.949 31.5664C102.66 31.5664 101.495 31.3451 100.453 30.9023C99.4115 30.4466 98.526 29.8151 97.7969 29.0078C97.0807 28.1875 96.5273 27.2174 96.1367 26.0977C95.7461 24.9779 95.5508 23.7474 95.5508 22.4062C95.5508 21.0781 95.7461 19.8542 96.1367 18.7344C96.5273 17.6016 97.0807 16.6315 97.7969 15.8242C98.526 15.0169 99.4115 14.3854 100.453 13.9297C101.495 13.474 102.66 13.2461 103.949 13.2461C105.16 13.2461 106.247 13.474 107.211 13.9297C108.174 14.3854 108.995 15.0234 109.672 15.8438C110.362 16.651 110.889 17.6146 111.254 18.7344C111.618 19.8542 111.801 21.0781 111.801 22.4062C111.801 23.7344 111.618 24.9583 111.254 26.0781C110.889 27.1979 110.362 28.168 109.672 28.9883C108.995 29.7956 108.174 30.4271 107.211 30.8828ZM108.832 13.168C107.608 12.6862 106.208 12.4453 104.633 12.4453C103.07 12.4453 101.677 12.6862 100.453 13.168C99.2292 13.6497 98.194 14.3333 97.3477 15.2188C96.5013 16.0911 95.8568 17.1393 95.4141 18.3633C94.9714 19.5872 94.75 20.9349 94.75 22.4062C94.75 23.8776 94.9714 25.2253 95.4141 26.4492C95.8568 27.6602 96.4948 28.7083 97.3281 29.5938C98.1745 30.4661 99.2096 31.1432 100.434 31.625C101.671 32.1198 103.07 32.3672 104.633 32.3672C106.208 32.3672 107.615 32.1198 108.852 31.625C110.089 31.1432 111.124 30.4661 111.957 29.5938C112.803 28.7083 113.448 27.6536 113.891 26.4297C114.333 25.2057 114.555 23.8646 114.555 22.4062C114.555 20.9349 114.333 19.5872 113.891 18.3633C113.448 17.1393 112.803 16.0911 111.957 15.2188C111.111 14.3333 110.069 13.6497 108.832 13.168ZM104.633 29.3984C102.745 28.9427 101.801 26.612 101.801 22.4062C101.801 18.2396 102.745 15.9023 104.633 15.3945C106.56 15.9023 107.523 18.2396 107.523 22.4062C107.523 26.612 106.56 28.9427 104.633 29.3984ZM132.211 4.59375C133.005 4.1901 133.904 3.94922 134.906 3.87109C135.909 3.94922 136.807 4.1901 137.602 4.59375C138.409 4.9974 139.112 5.51823 139.711 6.15625C140.323 6.79427 140.837 7.52995 141.254 8.36328C141.684 9.18359 142.029 10.0625 142.289 11C142.562 11.9245 142.758 12.8815 142.875 13.8711C143.005 14.8477 143.07 15.8112 143.07 16.7617C143.07 17.6992 143.005 18.6628 142.875 19.6523C142.758 20.6289 142.562 21.5794 142.289 22.5039C142.029 23.4154 141.684 24.2878 141.254 25.1211C140.837 25.9414 140.323 26.6706 139.711 27.3086C139.112 27.9336 138.415 28.4479 137.621 28.8516C136.827 29.2422 135.922 29.4766 134.906 29.5547C133.917 29.4766 133.025 29.2422 132.23 28.8516C131.449 28.4609 130.753 27.9531 130.141 27.3281C129.542 26.6901 129.027 25.9609 128.598 25.1406C128.181 24.3203 127.836 23.4479 127.562 22.5234C127.289 21.599 127.087 20.6484 126.957 19.6719C126.84 18.6823 126.781 17.7122 126.781 16.7617C126.781 15.8112 126.84 14.8477 126.957 13.8711C127.087 12.8815 127.283 11.9245 127.543 11C127.816 10.0755 128.161 9.20312 128.578 8.38281C129.008 7.54948 129.522 6.8138 130.121 6.17578C130.72 5.52474 131.417 4.9974 132.211 4.59375ZM130.766 29.8281C131.781 30.2057 132.934 30.3945 134.223 30.3945C135.421 30.3945 136.488 30.2057 137.426 29.8281C138.363 29.4375 139.19 28.9102 139.906 28.2461C140.622 27.582 141.228 26.8073 141.723 25.9219C142.23 25.0234 142.641 24.0729 142.953 23.0703C143.279 22.0547 143.513 21.013 143.656 19.9453C143.799 18.8646 143.871 17.8034 143.871 16.7617C143.871 15.7201 143.793 14.6589 143.637 13.5781C143.493 12.4844 143.259 11.4297 142.934 10.4141C142.621 9.39844 142.211 8.44141 141.703 7.54297C141.195 6.64453 140.583 5.86328 139.867 5.19922C139.164 4.52214 138.344 3.99479 137.406 3.61719C136.469 3.22656 135.408 3.03125 134.223 3.03125C132.934 3.03125 131.775 3.22656 130.746 3.61719C129.73 4.00781 128.839 4.53516 128.07 5.19922C127.302 5.86328 126.645 6.64453 126.098 7.54297C125.551 8.44141 125.108 9.39844 124.77 10.4141C124.431 11.4297 124.184 12.4844 124.027 13.5781C123.871 14.6589 123.793 15.7201 123.793 16.7617C123.793 17.8034 123.871 18.8711 124.027 19.9648C124.184 21.0456 124.431 22.0938 124.77 23.1094C125.121 24.112 125.564 25.056 126.098 25.9414C126.645 26.8268 127.302 27.6016 128.07 28.2656C128.852 28.9167 129.75 29.4375 130.766 29.8281ZM137.133 31.5273C136.091 31.7096 135.121 31.8008 134.223 31.8008C133.246 31.8008 132.204 31.7031 131.098 31.5078C129.991 31.3125 128.891 30.987 127.797 30.5312C126.703 30.0755 125.648 29.4766 124.633 28.7344C123.63 27.9792 122.745 27.0482 121.977 25.9414C121.208 24.8216 120.59 23.5065 120.121 21.9961C119.665 20.4857 119.438 18.7409 119.438 16.7617C119.438 14.7174 119.678 12.9271 120.16 11.3906C120.642 9.84115 121.28 8.50651 122.074 7.38672C122.868 6.26693 123.78 5.33594 124.809 4.59375C125.837 3.85156 126.898 3.26562 127.992 2.83594C129.086 2.39323 130.173 2.08724 131.254 1.91797C132.335 1.73568 133.324 1.64453 134.223 1.64453C135.147 1.64453 136.13 1.7487 137.172 1.95703C138.227 2.15234 139.275 2.48438 140.316 2.95312C141.358 3.40885 142.354 4.01432 143.305 4.76953C144.255 5.52474 145.095 6.46224 145.824 7.58203C146.553 8.70182 147.133 10.0234 147.562 11.5469C148.005 13.0573 148.227 14.7956 148.227 16.7617C148.227 18.7669 148.005 20.5378 147.562 22.0742C147.12 23.5977 146.527 24.9193 145.785 26.0391C145.056 27.1458 144.21 28.0703 143.246 28.8125C142.283 29.5547 141.28 30.1471 140.238 30.5898C139.21 31.0326 138.174 31.3451 137.133 31.5273ZM127.953 31.5273C129.971 32.2956 132.289 32.6797 134.906 32.6797C137.367 32.6797 139.6 32.3281 141.605 31.625C143.624 30.9349 145.342 29.9128 146.762 28.5586C148.194 27.2044 149.294 25.5443 150.062 23.5781C150.844 21.599 151.234 19.3268 151.234 16.7617C151.234 14.2096 150.844 11.944 150.062 9.96484C149.294 7.98568 148.194 6.32552 146.762 4.98438C145.342 3.63021 143.624 2.60156 141.605 1.89844C139.6 1.19531 137.367 0.84375 134.906 0.84375C132.289 0.84375 129.971 1.22786 127.953 1.99609C125.935 2.7513 124.236 3.82552 122.855 5.21875C121.475 6.59896 120.427 8.27214 119.711 10.2383C118.995 12.1914 118.637 14.3659 118.637 16.7617C118.637 19.1576 118.995 21.3385 119.711 23.3047C120.427 25.2578 121.475 26.931 122.855 28.3242C124.236 29.7044 125.935 30.7721 127.953 31.5273ZM113.875 40.4375C113.992 40.151 114.383 39.9948 115.047 39.9688C115.372 39.1354 115.372 38.3607 115.047 37.6445H102.098C101.772 38.3607 101.772 39.1354 102.098 39.9688C103.4 40.099 104.376 40.3008 105.027 40.5742C105.691 40.8346 106.154 41.2839 106.414 41.9219L117.332 68.3672H119.285L124.383 54.8711L129.617 68.3672H131.609L141.609 41.9219C141.857 41.3099 142.273 40.8542 142.859 40.5547C143.419 40.2943 144.682 40.099 146.648 39.9688C146.974 39.1354 146.974 38.3607 146.648 37.6445H135.047C134.734 38.3607 134.734 39.1354 135.047 39.9688C136.362 40.0729 137.234 40.2487 137.664 40.4961C138.107 40.7305 138.198 41.2057 137.938 41.9219L132.449 56.6094L126.863 41.9219C126.642 41.3359 126.746 40.8802 127.176 40.5547C127.605 40.2161 128.523 40.0208 129.93 39.9688C130.255 39.1354 130.255 38.3607 129.93 37.6445H116.141C115.815 38.3607 115.815 39.1354 116.141 39.9688C117.039 40.0208 117.697 40.1836 118.113 40.457C118.53 40.7174 118.882 41.1927 119.168 41.8828L122.527 50.3203L120.145 56.7266L114.129 41.9219C113.842 41.2057 113.758 40.7109 113.875 40.4375ZM102.781 38.2891H114.383C114.539 38.5495 114.539 38.8555 114.383 39.207C112.677 39.3372 111.557 39.5521 111.023 39.8516C110.49 40.138 110.444 40.724 110.887 41.6094L119.09 61.8047L123.367 50.3203L119.93 41.6094C119.617 40.776 119.227 40.1901 118.758 39.8516C118.289 39.5 117.645 39.2852 116.824 39.207C116.655 38.8555 116.655 38.5495 116.824 38.2891H129.09C129.259 38.5495 129.259 38.8555 129.09 39.207C127.02 39.3112 125.529 39.5651 124.617 39.9688C123.706 40.3594 123.4 40.9062 123.699 41.6094L131.414 61.8047L139.012 41.3555C139.259 40.7435 139.168 40.2682 138.738 39.9297C138.387 39.6302 137.436 39.3893 135.887 39.207C135.73 38.8555 135.73 38.5495 135.887 38.2891H145.809C145.978 38.5495 145.978 38.8555 145.809 39.207C144.402 39.3112 143.315 39.513 142.547 39.8125C141.792 40.099 141.271 40.6133 140.984 41.3555L131.062 67.5664H130.184L124.285 52.6836L118.738 67.5664H117.859L107.137 41.6094C106.577 40.2422 105.125 39.4414 102.781 39.207C102.612 38.8555 102.612 38.5495 102.781 38.2891ZM160.359 52.4492C159.578 51.1602 158.517 50.5156 157.176 50.5156C156.434 50.5156 155.757 50.6784 155.145 51.0039C154.546 51.3164 154.031 51.7982 153.602 52.4492C153.185 53.0872 152.859 53.9076 152.625 54.9102C152.391 55.8997 152.273 57.0651 152.273 58.4062C152.273 59.7604 152.391 60.9323 152.625 61.9219C152.859 62.8984 153.185 63.7122 153.602 64.3633C154.031 65.0143 154.546 65.4961 155.145 65.8086C155.757 66.1211 156.434 66.2773 157.176 66.2773C158.517 66.2773 159.578 65.6393 160.359 64.3633C161.154 63.0872 161.551 61.1016 161.551 58.4062C161.551 55.7109 161.154 53.7253 160.359 52.4492ZM160.438 66.8828C159.474 67.3385 158.387 67.5664 157.176 67.5664C155.887 67.5664 154.721 67.3451 153.68 66.9023C152.638 66.4466 151.753 65.8151 151.023 65.0078C150.307 64.1875 149.754 63.2174 149.363 62.0977C148.973 60.9779 148.777 59.7474 148.777 58.4062C148.777 57.0781 148.973 55.8542 149.363 54.7344C149.754 53.6016 150.307 52.6315 151.023 51.8242C151.753 51.0169 152.638 50.3854 153.68 49.9297C154.721 49.474 155.887 49.2461 157.176 49.2461C158.387 49.2461 159.474 49.474 160.438 49.9297C161.401 50.3854 162.221 51.0234 162.898 51.8438C163.589 52.651 164.116 53.6146 164.48 54.7344C164.845 55.8542 165.027 57.0781 165.027 58.4062C165.027 59.7344 164.845 60.9583 164.48 62.0781C164.116 63.1979 163.589 64.168 162.898 64.9883C162.221 65.7956 161.401 66.4271 160.438 66.8828ZM162.059 49.168C160.835 48.6862 159.435 48.4453 157.859 48.4453C156.297 48.4453 154.904 48.6862 153.68 49.168C152.456 49.6497 151.421 50.3333 150.574 51.2188C149.728 52.0911 149.083 53.1393 148.641 54.3633C148.198 55.5872 147.977 56.9349 147.977 58.4062C147.977 59.8776 148.198 61.2253 148.641 62.4492C149.083 63.6602 149.721 64.7083 150.555 65.5938C151.401 66.4661 152.436 67.1432 153.66 67.625C154.897 68.1198 156.297 68.3672 157.859 68.3672C159.435 68.3672 160.841 68.1198 162.078 67.625C163.315 67.1432 164.35 66.4661 165.184 65.5938C166.03 64.7083 166.674 63.6536 167.117 62.4297C167.56 61.2057 167.781 59.8646 167.781 58.4062C167.781 56.9349 167.56 55.5872 167.117 54.3633C166.674 53.1393 166.03 52.0911 165.184 51.2188C164.337 50.3333 163.296 49.6497 162.059 49.168ZM157.859 65.3984C155.971 64.9427 155.027 62.612 155.027 58.4062C155.027 54.2396 155.971 51.9023 157.859 51.3945C159.786 51.9023 160.75 54.2396 160.75 58.4062C160.75 62.612 159.786 64.9427 157.859 65.3984ZM180.418 52.5078C179.402 53.6406 178.732 54.806 178.406 56.0039C178.406 58.9076 178.465 61.681 178.582 64.3242C178.608 65.2878 180.164 65.9128 183.25 66.1992C183.432 66.5508 183.432 66.8568 183.25 67.1172C179.227 66.9609 175.509 66.9609 172.098 67.1172C171.902 66.8568 171.902 66.5508 172.098 66.1992C174.285 65.9128 175.392 65.2878 175.418 64.3242C175.548 61.3945 175.561 57.5013 175.457 52.6445C174.702 52.1888 173.445 51.9219 171.688 51.8438C171.609 51.5443 171.609 51.2383 171.688 50.9258C173.979 50.6784 175.997 50.1445 177.742 49.3242C178.081 49.4544 178.302 49.6237 178.406 49.832V53.1914C179.161 52.1888 180.047 51.2839 181.062 50.4766C182.091 49.6562 183.113 49.2461 184.129 49.2461C184.91 49.2461 185.542 49.4805 186.023 49.9492C186.518 50.4049 186.766 51.0365 186.766 51.8438C186.766 52.612 186.538 53.2109 186.082 53.6406C185.639 54.0703 185.066 54.2852 184.363 54.2852C184.181 53.9336 184.181 53.6276 184.363 53.3672C185.04 53.1719 185.379 52.7161 185.379 52C185.379 51.2057 184.76 50.8086 183.523 50.8086C182.469 50.8086 181.434 51.375 180.418 52.5078ZM183.973 65.4766C182.241 65.1901 181.362 64.793 181.336 64.2852C181.232 61.694 181.18 58.9857 181.18 56.1602C181.31 55.5742 181.642 54.9232 182.176 54.207C182.762 54.793 183.491 55.0859 184.363 55.0859C185.301 55.0859 186.069 54.7995 186.668 54.2266C187.267 53.6536 187.566 52.8594 187.566 51.8438C187.566 50.776 187.247 49.9427 186.609 49.3438C185.971 48.7448 185.145 48.4453 184.129 48.4453C183.257 48.4453 182.273 48.8424 181.18 49.6367C180.477 48.9466 179.422 48.5234 178.016 48.3672C175.581 49.4089 173.276 49.9948 171.102 50.125C170.802 50.9974 170.802 51.8242 171.102 52.6055C172.612 52.6836 173.797 52.8529 174.656 53.1133C174.786 56.8503 174.773 60.5742 174.617 64.2852C174.591 64.793 173.484 65.1901 171.297 65.4766C170.867 66.2839 170.893 67.0716 171.375 67.8398C174.201 67.7357 178.374 67.7747 183.895 67.957C184.376 67.1628 184.402 66.3359 183.973 65.4766ZM197.742 64.2266C197.768 65.1901 199.331 65.8151 202.43 66.1016C202.56 66.4271 202.56 66.7461 202.43 67.0586C198.003 66.9544 194.279 66.9544 191.258 67.0586C191.128 66.7461 191.128 66.4271 191.258 66.1016C193.445 65.8151 194.552 65.1901 194.578 64.2266C194.708 58.2891 194.721 50.4245 194.617 40.6328C193.849 40.1901 192.729 39.9232 191.258 39.832C191.18 39.5456 191.18 39.2396 191.258 38.9141C193.211 38.7057 195.092 38.1719 196.902 37.3125C197.254 37.4557 197.482 37.6315 197.586 37.8398C197.56 48.2174 197.612 57.013 197.742 64.2266ZM203.133 67.7422C203.354 66.974 203.354 66.1862 203.133 65.3789C201.401 65.1706 200.522 64.7734 200.496 64.1875C200.34 58.0938 200.288 49.2461 200.34 37.6445C199.65 36.8893 198.595 36.4596 197.176 36.3555C194.728 37.4232 192.514 38.0091 190.535 38.1133C190.249 38.9987 190.249 39.8255 190.535 40.5938C191.85 40.6719 192.944 40.8477 193.816 41.1211C193.947 48.8555 193.934 56.5443 193.777 64.1875C193.751 64.7734 192.671 65.1706 190.535 65.3789C190.327 66.1862 190.327 66.974 190.535 67.7422C193.921 67.638 198.12 67.638 203.133 67.7422ZM212.137 63.1328C212.944 64.3828 214.122 65.0078 215.672 65.0078C216.974 65.0078 218.348 64.3112 219.793 62.918C219.819 61.6419 219.832 59.2266 219.832 55.6719V52.8398C218.921 51.2904 217.547 50.5156 215.711 50.5156C215.203 50.5156 214.702 50.6263 214.207 50.8477C213.712 51.056 213.204 51.4206 212.684 51.9414C212.163 52.4622 211.74 53.276 211.414 54.3828C211.102 55.4896 210.945 56.8177 210.945 58.3672C210.945 60.2812 211.342 61.8698 212.137 63.1328ZM228.348 67.918C228.829 67.1237 228.855 66.2969 228.426 65.4375C226.616 65.2292 225.698 64.8451 225.672 64.2852C225.555 61.3815 225.496 52.5013 225.496 37.6445C224.806 36.8893 223.758 36.4596 222.352 36.3555C219.552 37.3711 217.241 37.957 215.418 38.1133C215.132 38.9987 215.132 39.8255 215.418 40.5938C216.941 40.6719 218.133 40.8477 218.992 41.1211C218.992 43.9987 219.005 46.4661 219.031 48.5234C218.445 48.4714 217.56 48.4453 216.375 48.4453C214.643 48.4453 213.1 48.7773 211.746 49.4414C210.405 50.1055 209.357 50.9714 208.602 52.0391C207.846 53.1068 207.28 54.2396 206.902 55.4375C206.525 56.6354 206.336 57.8659 206.336 59.1289C206.336 61.9805 207.02 64.2331 208.387 65.8867C209.767 67.5404 211.564 68.3672 213.777 68.3672C216.017 68.3672 217.768 67.9505 219.031 67.1172C219.161 67.4427 219.467 67.7096 219.949 67.918C222.215 67.8138 225.014 67.8138 228.348 67.918ZM216.473 51.3945C217.527 51.5638 218.38 52.1107 219.031 53.0352V55.6719C219.031 59.0052 219.018 61.3164 218.992 62.6055C218.081 63.4258 217.195 63.9336 216.336 64.1289C215.268 63.9076 214.467 63.2695 213.934 62.2148C213.413 61.1602 213.152 59.8776 213.152 58.3672C213.152 56.0365 213.478 54.3438 214.129 53.2891C214.78 52.2214 215.561 51.5898 216.473 51.3945ZM226.18 66.0039C226.531 66.056 227.039 66.1081 227.703 66.1602C227.885 66.5117 227.885 66.8177 227.703 67.0781C225.359 67 223.829 66.9609 223.113 66.9609C222.918 66.9609 222.69 66.9674 222.43 66.9805C222.182 66.9935 221.844 67.013 221.414 67.0391C220.997 67.0651 220.574 67.0911 220.145 67.1172C219.962 67.013 219.799 66.8112 219.656 66.5117C219.708 66.1992 219.734 65.4961 219.734 64.4023C217.612 66.5117 215.522 67.5664 213.465 67.5664C211.837 67.5664 210.444 66.8112 209.285 65.3008C208.126 63.7904 207.547 61.7331 207.547 59.1289C207.547 57.9701 207.71 56.8372 208.035 55.7305C208.374 54.6237 208.875 53.5755 209.539 52.5859C210.203 51.5833 211.121 50.776 212.293 50.1641C213.478 49.5521 214.839 49.2461 216.375 49.2461C217.339 49.2461 218.491 49.4544 219.832 49.8711C219.806 47.3971 219.793 44.3177 219.793 40.6328C219.038 40.1901 217.781 39.9232 216.023 39.832C215.945 39.5456 215.945 39.2396 216.023 38.9141C218.315 38.6797 220.327 38.1458 222.059 37.3125C222.384 37.4297 222.612 37.6055 222.742 37.8398C222.742 52.5924 222.794 61.4206 222.898 64.3242C222.898 64.6628 223.048 64.9492 223.348 65.1836C223.66 65.4049 224.122 65.5872 224.734 65.7305C225.359 65.8607 225.841 65.9518 226.18 66.0039Z" fill="white"/>
</svg>
