<svg width="363" height="105" viewBox="0 0 363 105" fill="none" xmlns="http://www.w3.org/2000/svg">
<path fill-rule="evenodd" clip-rule="evenodd" d="M0.5 14.9375C1 15.9375 2.04167 16.75 3.625 17.375C7.33333 11.375 13.5208 7.8125 22.1875 6.6875C22.3542 12.1458 22.4375 18.2083 22.4375 24.875C22.4375 32.8542 22.3333 39.4688 22.125 44.7188C22.0833 45.4479 19.8021 46.0417 15.2812 46.5C14.7604 47.75 14.7604 49.0938 15.2812 50.5312C22.9479 50.3646 27.6146 50.2812 29.2812 50.2812C30.3854 50.2812 34.3125 50.3646 41.0625 50.5312C41.5 49.1771 41.5417 47.8333 41.1875 46.5C36.5833 46.0417 34.2604 45.4271 34.2188 44.6562C34.0104 40.5104 33.9062 33.9167 33.9062 24.875C33.9062 17.7917 33.9896 11.6667 34.1562 6.5C39.4479 6.5 43.75 7.54167 47.0625 9.625C50.3958 11.6875 52.9167 14.2708 54.625 17.375C56.375 16.75 57.4896 15.9375 57.9688 14.9375C55.2396 10.4167 53.6146 6.11458 53.0938 2.03125H27.0625H5.40625C5.19792 3.65625 4.82292 5.27083 4.28125 6.875C3.76042 8.45833 3.29167 9.63542 2.875 10.4062C2.47917 11.1771 1.6875 12.6875 0.5 14.9375ZM23.4062 5.09375L12.4688 5.40625C11.5312 5.40625 10.5 5.94792 9.375 7.03125C8.27083 8.09375 7.3125 9.20833 6.5 10.375C5.6875 11.5417 4.54167 13.3438 3.0625 15.7812C2.5 15.5729 2.13542 15.2917 1.96875 14.9375C2.05208 14.8125 2.34375 14.25 2.84375 13.25C3.36458 12.25 3.69792 11.6042 3.84375 11.3125C3.98958 11 4.26042 10.4062 4.65625 9.53125C5.07292 8.65625 5.36458 7.95833 5.53125 7.4375C5.71875 6.89583 5.91667 6.23958 6.125 5.46875C6.33333 4.69792 6.47917 3.95833 6.5625 3.25C8.79167 3.25 12.1979 3.26042 16.7812 3.28125C21.3646 3.30208 24.7917 3.3125 27.0625 3.3125H37.75C42.8542 3.3125 46.6979 4.1875 49.2812 5.9375C51.8646 7.6875 54.1979 10.6875 56.2812 14.9375C56.1146 15.2917 55.7604 15.5729 55.2188 15.7812C51.5938 8.98958 44.5938 5.46875 34.2188 5.21875L29.4062 5.09375C29.1979 10.2604 29.0938 16.8542 29.0938 24.875C29.0938 31.1875 29.1979 37.8021 29.4062 44.7188C29.4479 46.3021 32.9271 47.3021 39.8438 47.7188C40.0104 48.3229 40.0104 48.8125 39.8438 49.1875C35.7604 49.0625 31.5 49 27.0625 49C23.3333 49 19.6979 49.0625 16.1562 49.1875C15.9896 48.5417 15.9896 48.0521 16.1562 47.7188C20.9479 47.2604 23.3646 46.2604 23.4062 44.7188C23.6146 39.5521 23.7188 32.9375 23.7188 24.875C23.7188 18.6042 23.6146 12.0104 23.4062 5.09375ZM67.875 27.4375C67.3125 26.8333 66.5417 26.4479 65.5625 26.2812C66.5833 24.9479 68.2708 24.2812 70.625 24.2812C71.7292 24.2812 72.625 24.6667 73.3125 25.4375C74.0208 26.2083 74.375 27.4271 74.375 29.0938V32.5C68.1042 34.1042 63.9375 35.6667 61.875 37.1875C59.8125 38.7083 58.7812 41 58.7812 44.0625C58.7812 44.7917 58.8854 45.5104 59.0938 46.2188C59.3021 46.9271 59.6562 47.6875 60.1562 48.5C60.6771 49.3125 61.4896 49.9583 62.5938 50.4375C63.7188 50.9375 65.0729 51.1875 66.6562 51.1875C70.2812 51.1875 73.2188 50.375 75.4688 48.75C76.3646 50.0625 77.6875 50.7188 79.4375 50.7188C80.8542 50.7188 82.0938 50.5729 83.1562 50.2812C84.2188 49.9896 85.1458 49.5104 85.9375 48.8438C86.7292 48.1771 87.3333 47.5833 87.75 47.0625C88.1875 46.5208 88.7292 45.7604 89.375 44.7812L90.375 43.0625C89.7083 41.5625 88.5208 40.75 86.8125 40.625L84.8125 40.6875V29.75C84.8125 25.9792 84 23.3021 82.375 21.7188C80.7708 20.1146 77.9792 19.3125 74 19.3125C69.8125 19.3125 66.4167 20.1562 63.8125 21.8438C61.2292 23.5312 59.9375 25.7396 59.9375 28.4688C59.9375 30.0729 60.4375 31.3125 61.4375 32.1875C62.4375 33.0625 63.5521 33.5 64.7812 33.5C65.9688 33.5 66.9271 33.1458 67.6562 32.4375C68.3854 31.7083 68.75 30.7917 68.75 29.6875C68.75 28.7708 68.4583 28.0208 67.875 27.4375ZM75.6562 41.9688V35.4375C71.6562 36.2917 68.9479 37.2708 67.5312 38.375C66.1354 39.4792 65.4375 40.8854 65.4375 42.5938C65.4375 43.6562 65.8125 44.4792 66.5625 45.0625C67.3333 45.6458 68.3229 45.9375 69.5312 45.9375C71.6146 45.9375 73.6562 44.6146 75.6562 41.9688ZM74.375 37.75V41.5625C73.1042 43.1042 71.9167 44.0729 70.8125 44.4688C70.1667 44.1146 69.8438 43.4896 69.8438 42.5938C69.8438 40.4688 71.3542 38.8542 74.375 37.75ZM63.25 29.1562C63.5417 30.2188 64.0521 30.75 64.7812 30.75C65.0729 31.3125 65.0729 31.8021 64.7812 32.2188C63.8438 32.2188 63.0104 31.8958 62.2812 31.25C61.5521 30.5833 61.1875 29.6562 61.1875 28.4688C61.1875 26.1562 62.2292 24.2708 64.3125 22.8125C66.4167 21.3333 68.8958 20.5938 71.75 20.5938C74.9167 20.5938 77.1458 21.2917 78.4375 22.6875C79.75 24.0625 80.4062 26.4167 80.4062 29.75V42.7188C80.4062 43.8854 80.8333 44.4896 81.6875 44.5312C82.875 44.5729 84.0417 43.7188 85.1875 41.9688C85.9583 42.0521 86.4792 42.3854 86.75 42.9688C86.5625 43.1979 86.2708 43.625 85.875 44.25C85.4792 44.8542 85.1771 45.3021 84.9688 45.5938C84.7812 45.8646 84.3125 46.4271 83.5625 47.2812C82.8333 48.1354 82.1042 48.7083 81.375 49C80.6458 49.2917 80 49.4375 79.4375 49.4375C77.1875 49.4375 75.9271 47.9062 75.6562 44.8438C75.6146 44.8854 75.3438 45.1458 74.8438 45.625C74.3646 46.0833 74.0208 46.4062 73.8125 46.5938C73.6042 46.7812 73.0312 47.2292 72.0938 47.9375C71.1771 48.625 70.2812 49.125 69.4062 49.4375C68.5521 49.75 67.6354 49.9062 66.6562 49.9062C64.1771 49.9062 62.4583 49.2917 61.5 48.0625C60.5417 46.8125 60.0625 45.4792 60.0625 44.0625C60.0625 41.375 61.125 39.3333 63.25 37.9375C65.375 36.5208 69.5104 35.0208 75.6562 33.4375V29.0938C75.6562 27.0104 75.25 25.4479 74.4375 24.4062C73.625 23.3438 72.5417 22.8125 71.1875 22.8125C68.3333 22.8125 66.1979 23.4375 64.7812 24.6875C63.3438 25.9583 62.8333 27.4479 63.25 29.1562ZM116.156 24.375H103.875V41.0625C103.875 44.3542 105.688 46 109.312 46C111.146 46 113.042 45.125 115 43.375C115.5 43.4167 115.844 43.6667 116.031 44.125C115.135 45.75 113.781 47.125 111.969 48.25C110.156 49.3542 108.177 49.9062 106.031 49.9062C100.99 49.9062 98.4688 46.8542 98.4688 40.75V24.375H94.6562C94.5104 23.8542 94.5104 23.375 94.6562 22.9375C95.8438 22.2708 96.75 21.7292 97.375 21.3125C98.0208 20.875 98.8125 20.125 99.75 19.0625C100.688 17.9792 101.542 16.7188 102.312 15.2812C102.833 15.0521 103.354 15.0521 103.875 15.2812V22.125H116.156C116.448 22.8125 116.448 23.5625 116.156 24.375ZM117.438 44.1875C116.875 42.9167 115.938 42.1979 114.625 42.0312C113.083 43.4688 111.688 44.3229 110.438 44.5938C109 44.2396 108.281 43.0625 108.281 41.0625V25.625H117.375C118.042 23.9792 118.042 22.3854 117.375 20.8438H108.281V14.375C105.677 13.4792 103.396 13.4375 101.438 14.25C100.667 15.75 99.7812 17.0312 98.7812 18.0938C97.7812 19.1562 96.9479 19.9271 96.2812 20.4062C95.6146 20.8646 94.6458 21.4583 93.375 22.1875C93.0625 23.375 93.0625 24.5208 93.375 25.625H97.2188V40.75C97.2188 47.7083 100.156 51.1875 106.031 51.1875C108.427 51.1875 110.656 50.5104 112.719 49.1562C114.781 47.8229 116.354 46.1667 117.438 44.1875ZM144.531 24.375H132.25V41.0625C132.25 44.3542 134.062 46 137.688 46C139.521 46 141.417 45.125 143.375 43.375C143.875 43.4167 144.219 43.6667 144.406 44.125C143.51 45.75 142.156 47.125 140.344 48.25C138.531 49.3542 136.552 49.9062 134.406 49.9062C129.365 49.9062 126.844 46.8542 126.844 40.75V24.375H123.031C122.885 23.8542 122.885 23.375 123.031 22.9375C124.219 22.2708 125.125 21.7292 125.75 21.3125C126.396 20.875 127.188 20.125 128.125 19.0625C129.062 17.9792 129.917 16.7188 130.688 15.2812C131.208 15.0521 131.729 15.0521 132.25 15.2812V22.125H144.531C144.823 22.8125 144.823 23.5625 144.531 24.375ZM145.812 44.1875C145.25 42.9167 144.312 42.1979 143 42.0312C141.458 43.4688 140.062 44.3229 138.812 44.5938C137.375 44.2396 136.656 43.0625 136.656 41.0625V25.625H145.75C146.417 23.9792 146.417 22.3854 145.75 20.8438H136.656V14.375C134.052 13.4792 131.771 13.4375 129.812 14.25C129.042 15.75 128.156 17.0312 127.156 18.0938C126.156 19.1562 125.323 19.9271 124.656 20.4062C123.99 20.8646 123.021 21.4583 121.75 22.1875C121.438 23.375 121.438 24.5208 121.75 25.625H125.594V40.75C125.594 47.7083 128.531 51.1875 134.406 51.1875C136.802 51.1875 139.031 50.5104 141.094 49.1562C143.156 47.8229 144.729 46.1667 145.812 44.1875ZM170.812 25.7188C169.562 23.6562 167.865 22.625 165.719 22.625C164.531 22.625 163.448 22.8854 162.469 23.4062C161.51 23.9062 160.688 24.6771 160 25.7188C159.333 26.7396 158.812 28.0521 158.438 29.6562C158.062 31.2396 157.875 33.1042 157.875 35.25C157.875 37.4167 158.062 39.2917 158.438 40.875C158.812 42.4375 159.333 43.7396 160 44.7812C160.688 45.8229 161.51 46.5938 162.469 47.0938C163.448 47.5938 164.531 47.8438 165.719 47.8438C167.865 47.8438 169.562 46.8229 170.812 44.7812C172.083 42.7396 172.719 39.5625 172.719 35.25C172.719 30.9375 172.083 27.7604 170.812 25.7188ZM170.938 48.8125C169.396 49.5417 167.656 49.9062 165.719 49.9062C163.656 49.9062 161.792 49.5521 160.125 48.8438C158.458 48.1146 157.042 47.1042 155.875 45.8125C154.729 44.5 153.844 42.9479 153.219 41.1562C152.594 39.3646 152.281 37.3958 152.281 35.25C152.281 33.125 152.594 31.1667 153.219 29.375C153.844 27.5625 154.729 26.0104 155.875 24.7188C157.042 23.4271 158.458 22.4167 160.125 21.6875C161.792 20.9583 163.656 20.5938 165.719 20.5938C167.656 20.5938 169.396 20.9583 170.938 21.6875C172.479 22.4167 173.792 23.4375 174.875 24.75C175.979 26.0417 176.823 27.5833 177.406 29.375C177.99 31.1667 178.281 33.125 178.281 35.25C178.281 37.375 177.99 39.3333 177.406 41.125C176.823 42.9167 175.979 44.4688 174.875 45.7812C173.792 47.0729 172.479 48.0833 170.938 48.8125ZM173.531 20.4688C171.573 19.6979 169.333 19.3125 166.812 19.3125C164.312 19.3125 162.083 19.6979 160.125 20.4688C158.167 21.2396 156.51 22.3333 155.156 23.75C153.802 25.1458 152.771 26.8229 152.062 28.7812C151.354 30.7396 151 32.8958 151 35.25C151 37.6042 151.354 39.7604 152.062 41.7188C152.771 43.6562 153.792 45.3333 155.125 46.75C156.479 48.1458 158.135 49.2292 160.094 50C162.073 50.7917 164.312 51.1875 166.812 51.1875C169.333 51.1875 171.583 50.7917 173.562 50C175.542 49.2292 177.198 48.1458 178.531 46.75C179.885 45.3333 180.917 43.6458 181.625 41.6875C182.333 39.7292 182.688 37.5833 182.688 35.25C182.688 32.8958 182.333 30.7396 181.625 28.7812C180.917 26.8229 179.885 25.1458 178.531 23.75C177.177 22.3333 175.51 21.2396 173.531 20.4688ZM166.812 46.4375C163.792 45.7083 162.281 41.9792 162.281 35.25C162.281 28.5833 163.792 24.8438 166.812 24.0312C169.896 24.8438 171.438 28.5833 171.438 35.25C171.438 41.9792 169.896 45.7083 166.812 46.4375ZM210.938 6.75C212.208 6.10417 213.646 5.71875 215.25 5.59375C216.854 5.71875 218.292 6.10417 219.562 6.75C220.854 7.39583 221.979 8.22917 222.938 9.25C223.917 10.2708 224.74 11.4479 225.406 12.7812C226.094 14.0938 226.646 15.5 227.062 17C227.5 18.4792 227.812 20.0104 228 21.5938C228.208 23.1562 228.312 24.6979 228.312 26.2188C228.312 27.7188 228.208 29.2604 228 30.8438C227.812 32.4062 227.5 33.9271 227.062 35.4062C226.646 36.8646 226.094 38.2604 225.406 39.5938C224.74 40.9062 223.917 42.0729 222.938 43.0938C221.979 44.0938 220.865 44.9167 219.594 45.5625C218.323 46.1875 216.875 46.5625 215.25 46.6875C213.667 46.5625 212.24 46.1875 210.969 45.5625C209.719 44.9375 208.604 44.125 207.625 43.125C206.667 42.1042 205.844 40.9375 205.156 39.625C204.49 38.3125 203.938 36.9167 203.5 35.4375C203.062 33.9583 202.74 32.4375 202.531 30.875C202.344 29.2917 202.25 27.7396 202.25 26.2188C202.25 24.6979 202.344 23.1562 202.531 21.5938C202.74 20.0104 203.052 18.4792 203.469 17C203.906 15.5208 204.458 14.125 205.125 12.8125C205.812 11.4792 206.635 10.3021 207.594 9.28125C208.552 8.23958 209.667 7.39583 210.938 6.75ZM208.625 47.125C210.25 47.7292 212.094 48.0312 214.156 48.0312C216.073 48.0312 217.781 47.7292 219.281 47.125C220.781 46.5 222.104 45.6562 223.25 44.5938C224.396 43.5312 225.365 42.2917 226.156 40.875C226.969 39.4375 227.625 37.9167 228.125 36.3125C228.646 34.6875 229.021 33.0208 229.25 31.3125C229.479 29.5833 229.594 27.8854 229.594 26.2188C229.594 24.5521 229.469 22.8542 229.219 21.125C228.99 19.375 228.615 17.6875 228.094 16.0625C227.594 14.4375 226.938 12.9062 226.125 11.4688C225.312 10.0312 224.333 8.78125 223.188 7.71875C222.062 6.63542 220.75 5.79167 219.25 5.1875C217.75 4.5625 216.052 4.25 214.156 4.25C212.094 4.25 210.24 4.5625 208.594 5.1875C206.969 5.8125 205.542 6.65625 204.312 7.71875C203.083 8.78125 202.031 10.0312 201.156 11.4688C200.281 12.9062 199.573 14.4375 199.031 16.0625C198.49 17.6875 198.094 19.375 197.844 21.125C197.594 22.8542 197.469 24.5521 197.469 26.2188C197.469 27.8854 197.594 29.5938 197.844 31.3438C198.094 33.0729 198.49 34.75 199.031 36.375C199.594 37.9792 200.302 39.4896 201.156 40.9062C202.031 42.3229 203.083 43.5625 204.312 44.625C205.562 45.6667 207 46.5 208.625 47.125ZM218.812 49.8438C217.146 50.1354 215.594 50.2812 214.156 50.2812C212.594 50.2812 210.927 50.125 209.156 49.8125C207.385 49.5 205.625 48.9792 203.875 48.25C202.125 47.5208 200.438 46.5625 198.812 45.375C197.208 44.1667 195.792 42.6771 194.562 40.9062C193.333 39.1146 192.344 37.0104 191.594 34.5938C190.865 32.1771 190.5 29.3854 190.5 26.2188C190.5 22.9479 190.885 20.0833 191.656 17.625C192.427 15.1458 193.448 13.0104 194.719 11.2188C195.99 9.42708 197.448 7.9375 199.094 6.75C200.74 5.5625 202.438 4.625 204.188 3.9375C205.938 3.22917 207.677 2.73958 209.406 2.46875C211.135 2.17708 212.719 2.03125 214.156 2.03125C215.635 2.03125 217.208 2.19792 218.875 2.53125C220.562 2.84375 222.24 3.375 223.906 4.125C225.573 4.85417 227.167 5.82292 228.688 7.03125C230.208 8.23958 231.552 9.73958 232.719 11.5312C233.885 13.3229 234.812 15.4375 235.5 17.875C236.208 20.2917 236.562 23.0729 236.562 26.2188C236.562 29.4271 236.208 32.2604 235.5 34.7188C234.792 37.1562 233.844 39.2708 232.656 41.0625C231.49 42.8333 230.135 44.3125 228.594 45.5C227.052 46.6875 225.448 47.6354 223.781 48.3438C222.135 49.0521 220.479 49.5521 218.812 49.8438ZM204.125 49.8438C207.354 51.0729 211.062 51.6875 215.25 51.6875C219.188 51.6875 222.76 51.125 225.969 50C229.198 48.8958 231.948 47.2604 234.219 45.0938C236.51 42.9271 238.271 40.2708 239.5 37.125C240.75 33.9583 241.375 30.3229 241.375 26.2188C241.375 22.1354 240.75 18.5104 239.5 15.3438C238.271 12.1771 236.51 9.52083 234.219 7.375C231.948 5.20833 229.198 3.5625 225.969 2.4375C222.76 1.3125 219.188 0.75 215.25 0.75C211.062 0.75 207.354 1.36458 204.125 2.59375C200.896 3.80208 198.177 5.52083 195.969 7.75C193.76 9.95833 192.083 12.6354 190.938 15.7812C189.792 18.9062 189.219 22.3854 189.219 26.2188C189.219 30.0521 189.792 33.5417 190.938 36.6875C192.083 39.8125 193.76 42.4896 195.969 44.7188C198.177 46.9271 200.896 48.6354 204.125 49.8438ZM178.5 59.75C178.688 59.2917 179.312 59.0417 180.375 59C180.896 57.6667 180.896 56.4271 180.375 55.2812H159.656C159.135 56.4271 159.135 57.6667 159.656 59C161.74 59.2083 163.302 59.5312 164.344 59.9688C165.406 60.3854 166.146 61.1042 166.562 62.125L184.031 104.438H187.156L195.312 82.8438L203.688 104.438H206.875L222.875 62.125C223.271 61.1458 223.938 60.4167 224.875 59.9375C225.771 59.5208 227.792 59.2083 230.938 59C231.458 57.6667 231.458 56.4271 230.938 55.2812H212.375C211.875 56.4271 211.875 57.6667 212.375 59C214.479 59.1667 215.875 59.4479 216.562 59.8438C217.271 60.2188 217.417 60.9792 217 62.125L208.219 85.625L199.281 62.125C198.927 61.1875 199.094 60.4583 199.781 59.9375C200.469 59.3958 201.938 59.0833 204.188 59C204.708 57.6667 204.708 56.4271 204.188 55.2812H182.125C181.604 56.4271 181.604 57.6667 182.125 59C183.562 59.0833 184.615 59.3438 185.281 59.7812C185.948 60.1979 186.51 60.9583 186.969 62.0625L192.344 75.5625L188.531 85.8125L178.906 62.125C178.448 60.9792 178.312 60.1875 178.5 59.75ZM160.75 56.3125H179.312C179.562 56.7292 179.562 57.2188 179.312 57.7812C176.583 57.9896 174.792 58.3333 173.938 58.8125C173.083 59.2708 173.01 60.2083 173.719 61.625L186.844 93.9375L193.688 75.5625L188.188 61.625C187.688 60.2917 187.062 59.3542 186.312 58.8125C185.562 58.25 184.531 57.9062 183.219 57.7812C182.948 57.2188 182.948 56.7292 183.219 56.3125H202.844C203.115 56.7292 203.115 57.2188 202.844 57.7812C199.531 57.9479 197.146 58.3542 195.688 59C194.229 59.625 193.74 60.5 194.219 61.625L206.562 93.9375L218.719 61.2188C219.115 60.2396 218.969 59.4792 218.281 58.9375C217.719 58.4583 216.198 58.0729 213.719 57.7812C213.469 57.2188 213.469 56.7292 213.719 56.3125H229.594C229.865 56.7292 229.865 57.2188 229.594 57.7812C227.344 57.9479 225.604 58.2708 224.375 58.75C223.167 59.2083 222.333 60.0312 221.875 61.2188L206 103.156H204.594L195.156 79.3438L186.281 103.156H184.875L167.719 61.625C166.823 59.4375 164.5 58.1562 160.75 57.7812C160.479 57.2188 160.479 56.7292 160.75 56.3125ZM252.875 78.9688C251.625 76.9062 249.927 75.875 247.781 75.875C246.594 75.875 245.51 76.1354 244.531 76.6562C243.573 77.1562 242.75 77.9271 242.062 78.9688C241.396 79.9896 240.875 81.3021 240.5 82.9062C240.125 84.4896 239.938 86.3542 239.938 88.5C239.938 90.6667 240.125 92.5417 240.5 94.125C240.875 95.6875 241.396 96.9896 242.062 98.0312C242.75 99.0729 243.573 99.8438 244.531 100.344C245.51 100.844 246.594 101.094 247.781 101.094C249.927 101.094 251.625 100.073 252.875 98.0312C254.146 95.9896 254.781 92.8125 254.781 88.5C254.781 84.1875 254.146 81.0104 252.875 78.9688ZM253 102.062C251.458 102.792 249.719 103.156 247.781 103.156C245.719 103.156 243.854 102.802 242.188 102.094C240.521 101.365 239.104 100.354 237.938 99.0625C236.792 97.75 235.906 96.1979 235.281 94.4062C234.656 92.6146 234.344 90.6458 234.344 88.5C234.344 86.375 234.656 84.4167 235.281 82.625C235.906 80.8125 236.792 79.2604 237.938 77.9688C239.104 76.6771 240.521 75.6667 242.188 74.9375C243.854 74.2083 245.719 73.8438 247.781 73.8438C249.719 73.8438 251.458 74.2083 253 74.9375C254.542 75.6667 255.854 76.6875 256.938 78C258.042 79.2917 258.885 80.8333 259.469 82.625C260.052 84.4167 260.344 86.375 260.344 88.5C260.344 90.625 260.052 92.5833 259.469 94.375C258.885 96.1667 258.042 97.7188 256.938 99.0312C255.854 100.323 254.542 101.333 253 102.062ZM255.594 73.7188C253.635 72.9479 251.396 72.5625 248.875 72.5625C246.375 72.5625 244.146 72.9479 242.188 73.7188C240.229 74.4896 238.573 75.5833 237.219 77C235.865 78.3958 234.833 80.0729 234.125 82.0312C233.417 83.9896 233.062 86.1458 233.062 88.5C233.062 90.8542 233.417 93.0104 234.125 94.9688C234.833 96.9062 235.854 98.5833 237.188 100C238.542 101.396 240.198 102.479 242.156 103.25C244.135 104.042 246.375 104.438 248.875 104.438C251.396 104.438 253.646 104.042 255.625 103.25C257.604 102.479 259.26 101.396 260.594 100C261.948 98.5833 262.979 96.8958 263.688 94.9375C264.396 92.9792 264.75 90.8333 264.75 88.5C264.75 86.1458 264.396 83.9896 263.688 82.0312C262.979 80.0729 261.948 78.3958 260.594 77C259.24 75.5833 257.573 74.4896 255.594 73.7188ZM248.875 99.6875C245.854 98.9583 244.344 95.2292 244.344 88.5C244.344 81.8333 245.854 78.0938 248.875 77.2812C251.958 78.0938 253.5 81.8333 253.5 88.5C253.5 95.2292 251.958 98.9583 248.875 99.6875ZM284.969 79.0625C283.344 80.875 282.271 82.7396 281.75 84.6562C281.75 89.3021 281.844 93.7396 282.031 97.9688C282.073 99.5104 284.562 100.51 289.5 100.969C289.792 101.531 289.792 102.021 289.5 102.438C283.062 102.188 277.115 102.188 271.656 102.438C271.344 102.021 271.344 101.531 271.656 100.969C275.156 100.51 276.927 99.5104 276.969 97.9688C277.177 93.2812 277.198 87.0521 277.031 79.2812C275.823 78.5521 273.812 78.125 271 78C270.875 77.5208 270.875 77.0312 271 76.5312C274.667 76.1354 277.896 75.2812 280.688 73.9688C281.229 74.1771 281.583 74.4479 281.75 74.7812V80.1562C282.958 78.5521 284.375 77.1042 286 75.8125C287.646 74.5 289.281 73.8438 290.906 73.8438C292.156 73.8438 293.167 74.2188 293.938 74.9688C294.729 75.6979 295.125 76.7083 295.125 78C295.125 79.2292 294.76 80.1875 294.031 80.875C293.323 81.5625 292.406 81.9062 291.281 81.9062C290.99 81.3438 290.99 80.8542 291.281 80.4375C292.365 80.125 292.906 79.3958 292.906 78.25C292.906 76.9792 291.917 76.3438 289.938 76.3438C288.25 76.3438 286.594 77.25 284.969 79.0625ZM290.656 99.8125C287.885 99.3542 286.479 98.7188 286.438 97.9062C286.271 93.7604 286.188 89.4271 286.188 84.9062C286.396 83.9688 286.927 82.9271 287.781 81.7812C288.719 82.7188 289.885 83.1875 291.281 83.1875C292.781 83.1875 294.01 82.7292 294.969 81.8125C295.927 80.8958 296.406 79.625 296.406 78C296.406 76.2917 295.896 74.9583 294.875 74C293.854 73.0417 292.531 72.5625 290.906 72.5625C289.51 72.5625 287.938 73.1979 286.188 74.4688C285.062 73.3646 283.375 72.6875 281.125 72.4375C277.229 74.1042 273.542 75.0417 270.062 75.25C269.583 76.6458 269.583 77.9688 270.062 79.2188C272.479 79.3438 274.375 79.6146 275.75 80.0312C275.958 86.0104 275.938 91.9688 275.688 97.9062C275.646 98.7188 273.875 99.3542 270.375 99.8125C269.688 101.104 269.729 102.365 270.5 103.594C275.021 103.427 281.698 103.49 290.531 103.781C291.302 102.51 291.344 101.188 290.656 99.8125ZM312.688 97.8125C312.729 99.3542 315.229 100.354 320.188 100.812C320.396 101.333 320.396 101.844 320.188 102.344C313.104 102.177 307.146 102.177 302.312 102.344C302.104 101.844 302.104 101.333 302.312 100.812C305.812 100.354 307.583 99.3542 307.625 97.8125C307.833 88.3125 307.854 75.7292 307.688 60.0625C306.458 59.3542 304.667 58.9271 302.312 58.7812C302.188 58.3229 302.188 57.8333 302.312 57.3125C305.438 56.9792 308.448 56.125 311.344 54.75C311.906 54.9792 312.271 55.2604 312.438 55.5938C312.396 72.1979 312.479 86.2708 312.688 97.8125ZM321.312 103.438C321.667 102.208 321.667 100.948 321.312 99.6562C318.542 99.3229 317.135 98.6875 317.094 97.75C316.844 88 316.76 73.8438 316.844 55.2812C315.74 54.0729 314.052 53.3854 311.781 53.2188C307.865 54.9271 304.323 55.8646 301.156 56.0312C300.698 57.4479 300.698 58.7708 301.156 60C303.26 60.125 305.01 60.4062 306.406 60.8438C306.615 73.2188 306.594 85.5208 306.344 97.75C306.302 98.6875 304.573 99.3229 301.156 99.6562C300.823 100.948 300.823 102.208 301.156 103.438C306.573 103.271 313.292 103.271 321.312 103.438ZM335.719 96.0625C337.01 98.0625 338.896 99.0625 341.375 99.0625C343.458 99.0625 345.656 97.9479 347.969 95.7188C348.01 93.6771 348.031 89.8125 348.031 84.125V79.5938C346.573 77.1146 344.375 75.875 341.438 75.875C340.625 75.875 339.823 76.0521 339.031 76.4062C338.24 76.7396 337.427 77.3229 336.594 78.1562C335.76 78.9896 335.083 80.2917 334.562 82.0625C334.062 83.8333 333.812 85.9583 333.812 88.4375C333.812 91.5 334.448 94.0417 335.719 96.0625ZM361.656 103.719C362.427 102.448 362.469 101.125 361.781 99.75C358.885 99.4167 357.417 98.8021 357.375 97.9062C357.188 93.2604 357.094 79.0521 357.094 55.2812C355.99 54.0729 354.312 53.3854 352.062 53.2188C347.583 54.8438 343.885 55.7812 340.969 56.0312C340.51 57.4479 340.51 58.7708 340.969 60C343.406 60.125 345.312 60.4062 346.688 60.8438C346.688 65.4479 346.708 69.3958 346.75 72.6875C345.812 72.6042 344.396 72.5625 342.5 72.5625C339.729 72.5625 337.26 73.0938 335.094 74.1562C332.948 75.2188 331.271 76.6042 330.062 78.3125C328.854 80.0208 327.948 81.8333 327.344 83.75C326.74 85.6667 326.438 87.6354 326.438 89.6562C326.438 94.2188 327.531 97.8229 329.719 100.469C331.927 103.115 334.802 104.438 338.344 104.438C341.927 104.438 344.729 103.771 346.75 102.438C346.958 102.958 347.448 103.385 348.219 103.719C351.844 103.552 356.323 103.552 361.656 103.719ZM342.656 77.2812C344.344 77.5521 345.708 78.4271 346.75 79.9062V84.125C346.75 89.4583 346.729 93.1562 346.688 95.2188C345.229 96.5312 343.812 97.3438 342.438 97.6562C340.729 97.3021 339.448 96.2812 338.594 94.5938C337.76 92.9062 337.344 90.8542 337.344 88.4375C337.344 84.7083 337.865 82 338.906 80.3125C339.948 78.6042 341.198 77.5938 342.656 77.2812ZM358.188 100.656C358.75 100.74 359.562 100.823 360.625 100.906C360.917 101.469 360.917 101.958 360.625 102.375C356.875 102.25 354.427 102.188 353.281 102.188C352.969 102.188 352.604 102.198 352.188 102.219C351.792 102.24 351.25 102.271 350.562 102.312C349.896 102.354 349.219 102.396 348.531 102.438C348.24 102.271 347.979 101.948 347.75 101.469C347.833 100.969 347.875 99.8438 347.875 98.0938C344.479 101.469 341.135 103.156 337.844 103.156C335.24 103.156 333.01 101.948 331.156 99.5312C329.302 97.1146 328.375 93.8229 328.375 89.6562C328.375 87.8021 328.635 85.9896 329.156 84.2188C329.698 82.4479 330.5 80.7708 331.562 79.1875C332.625 77.5833 334.094 76.2917 335.969 75.3125C337.865 74.3333 340.042 73.8438 342.5 73.8438C344.042 73.8438 345.885 74.1771 348.031 74.8438C347.99 70.8854 347.969 65.9583 347.969 60.0625C346.76 59.3542 344.75 58.9271 341.938 58.7812C341.812 58.3229 341.812 57.8333 341.938 57.3125C345.604 56.9375 348.823 56.0833 351.594 54.75C352.115 54.9375 352.479 55.2188 352.688 55.5938C352.688 79.1979 352.771 93.3229 352.938 97.9688C352.938 98.5104 353.177 98.9688 353.656 99.3438C354.156 99.6979 354.896 99.9896 355.875 100.219C356.875 100.427 357.646 100.573 358.188 100.656Z" fill="white"/>
</svg>
