<svg xmlns="http://www.w3.org/2000/svg" width="110" height="110" viewBox="0 0 110 110"><defs><style>.a{fill:#fff;opacity:0;}.b{fill:#d7153a;}</style></defs><g transform="translate(0)"><rect class="a" width="110" height="110"/><path class="b" d="M91.686-233.988a6.2,6.2,0,0,0-3.321-5.483,6.171,6.171,0,0,0,1.945-4.495,6.2,6.2,0,0,0-6.193-6.193h-5.5a6.171,6.171,0,0,0-4.567,2.025c-.818-4.246-3.613-7.874-12.644-7.874-5.463,0-10.034,2.574-14.067,4.846-3.085,1.737-5.75,3.239-8.122,3.239-6.035,0-15.564.093-15.66.094a1.377,1.377,0,0,0-1.363,1.39,1.376,1.376,0,0,0,1.376,1.362h.014c.1,0,9.611-.094,15.633-.094,3.094,0,6.193-1.745,9.473-3.593,3.738-2.106,7.975-4.491,12.717-4.491,9.2,0,10.061,3.719,10.2,8.212.016.523.039,1.094.064,1.7.127,3.085.425,10.311-1.382,10.811a3.438,3.438,0,0,1-2.878-.279c-2.381-1.5-3.246-6.358-3.662-8.692a8.149,8.149,0,0,0-.492-2.029,1.433,1.433,0,0,0-1.627-.876,1.583,1.583,0,0,0-1.136,1.682c-.054,1.353-.2,4.949-5.626,6.5-3.07.879-5.74-4.738-5.766-4.793a1.376,1.376,0,0,0-1.821-.684,1.377,1.377,0,0,0-.684,1.823c.145.321,3.63,7.845,9.028,6.3a10.7,10.7,0,0,0,6.109-4.082c.687,2.7,1.88,5.711,4.21,7.18a5.705,5.705,0,0,0,3.1.888,7.432,7.432,0,0,0,1.982-.285,3.818,3.818,0,0,0,2.406-2.179,6.177,6.177,0,0,0,1.192,2.106,6.2,6.2,0,0,0-3.568,5.6,6.15,6.15,0,0,0,1.2,3.646,6.2,6.2,0,0,0-4.639,5.988,6.158,6.158,0,0,0,1.047,3.44H60.722c-3.659,0-7.643-1.922-11.5-3.78-3.737-1.8-7.268-3.505-10.524-3.505H-16.938a1.376,1.376,0,0,0-1.376,1.376,1.377,1.377,0,0,0,1.376,1.376H38.7c2.627,0,5.882,1.57,9.328,3.232,4.131,1.993,8.4,4.054,12.691,4.054H79.988a6.2,6.2,0,0,0,6.193-6.193,6.151,6.151,0,0,0-1.2-3.646,6.2,6.2,0,0,0,4.638-5.987,6.158,6.158,0,0,0-1.5-4.033A6.2,6.2,0,0,0,91.686-233.988ZM78.612-247.406h5.5a3.444,3.444,0,0,1,3.44,3.44,3.445,3.445,0,0,1-3.44,3.44h-5.5a3.445,3.445,0,0,1-3.44-3.44A3.445,3.445,0,0,1,78.612-247.406Zm-4.086,8.082a6.254,6.254,0,0,0,.8.6,6.256,6.256,0,0,0-.817.826C74.521-238.372,74.527-238.847,74.526-239.324Zm5.462,28.043H73.8a3.445,3.445,0,0,1-3.44-3.44,3.445,3.445,0,0,1,3.44-3.44h6.193a3.444,3.444,0,0,1,3.44,3.44A3.445,3.445,0,0,1,79.988-211.281Zm3.44-9.633H77.236a3.445,3.445,0,0,1-3.44-3.44,3.445,3.445,0,0,1,3.44-3.44h6.193a3.444,3.444,0,0,1,3.44,3.44A3.445,3.445,0,0,1,83.429-220.914Zm2.064-9.633H79.3a3.445,3.445,0,0,1-3.44-3.44,3.445,3.445,0,0,1,3.44-3.44h6.193a3.444,3.444,0,0,1,3.44,3.44A3.445,3.445,0,0,1,85.493-230.547ZM28.249-273.211l21.9,12.489a1.377,1.377,0,0,0,.681.181,1.376,1.376,0,0,0,1.2-.7l9.4-16.484a1.371,1.371,0,0,0,.131-1.045,1.375,1.375,0,0,0-.645-.833l-21.9-12.488a1.376,1.376,0,0,0-1.878.514l-9.4,16.483a1.373,1.373,0,0,0-.131,1.045A1.375,1.375,0,0,0,28.249-273.211Zm15.07-13.251.839.479-.665,1.165-.839-.478Zm1.184,3.8-.246.433L39.1-283l1.177-2.064Zm-6.128.939,5.151.775-.862,1.512-5.084-.892Zm-1.519,2.664,5.084.893-.952,1.671-5.084-.894Zm-1.676,2.94,5.083.895-1.1,1.934-4.221-2.406Zm3.9,4.365a.682.682,0,0,0,.341.091.69.69,0,0,0,.6-.347l6.026-10.566a.693.693,0,0,0,.065-.523.689.689,0,0,0-.323-.416l-1.093-.623.665-1.166L51-282.082l-.665,1.166-1.093-.623a.687.687,0,0,0-.939.257l-6.026,10.566a.687.687,0,0,0,.257.939l1.093.623-.665,1.166-5.646-3.22.665-1.166Zm13.959-9.17-.664,1.165-.839-.478.664-1.166ZM45-266.828l-.838-.478.664-1.166.839.478Zm-1.183-3.8.482-.844,5.082.893-1.344,2.357Zm6.288-1.22-5.083-.894.952-1.67,5.084.893Zm1.677-2.941-5.084-.893.8-1.394,5.15.775Zm1.593-2.794-5.15-.775L49.158-280l4.221,2.406Zm-16.586,4.531-.664,1.166-.839-.479.665-1.166Zm13.531,9.26-4.124-2.352.665-1.165,1.093.623a.685.685,0,0,0,.341.09.682.682,0,0,0,.182-.025.687.687,0,0,0,.416-.322l2.165-3.8v0l3.861-6.77a.693.693,0,0,0,.066-.523.692.692,0,0,0-.323-.416l-1.093-.623.665-1.165,4.124,2.351ZM38.845-289.013l3.279,1.87-.665,1.166-1.093-.623a.686.686,0,0,0-.939.257L33.4-275.777a.689.689,0,0,0-.065.522.688.688,0,0,0,.323.416l1.093.623-.665,1.165-3.279-1.87ZM10.382-236.047v3.39l4.076-4.543a.689.689,0,0,1,.972-.053.689.689,0,0,1,.052.972l-4.841,5.395,5.794,5.794a.687.687,0,0,1,0,.973.683.683,0,0,1-.486.2.683.683,0,0,1-.486-.2l-5.081-5.08v4.131a.688.688,0,0,1-.688.688.688.688,0,0,1-.688-.688v-10.979a.688.688,0,0,1,.688-.688A.688.688,0,0,1,10.382-236.047Zm12.029,4.807c.143.312.3.647.459.977l1.638.168a.689.689,0,0,1,.614.755.688.688,0,0,1-.684.618c-.023,0-.047,0-.071,0l-.8-.082c.629,1.283,1.305,2.615,1.976,3.88a.688.688,0,0,1-.286.93.684.684,0,0,1-.322.08.688.688,0,0,1-.608-.365c-.982-1.852-1.766-3.392-2.4-4.693L21.722-229a25.372,25.372,0,0,1-2.239,4.307.687.687,0,0,1-.953.2.687.687,0,0,1-.2-.953,24.168,24.168,0,0,0,1.938-3.7l-2.212-.226a.688.688,0,0,1-.614-.755.692.692,0,0,1,.755-.614l2.561.262c.065-.2.129-.406.182-.606-1.907-4.263-1.411-4.661-1.078-4.929.606-.488,1.3.108,1.535.3C22.641-234.657,22.768-232.977,22.412-231.24Zm7.892-2.652c-.219,0-.447-.016-.679-.039l1.3,8.761a.688.688,0,0,1-.58.782.734.734,0,0,1-.1.008.689.689,0,0,1-.68-.588L28.2-234.183a21.7,21.7,0,0,1-3.537-1.236.688.688,0,0,1-.345-.91.691.691,0,0,1,.91-.345,20.957,20.957,0,0,0,2.8,1.012.687.687,0,0,1,.567-.527.687.687,0,0,1,.782.58l.039.266a2.754,2.754,0,0,0,1.788-.1c.061-.043.2-.143.173-.554a.688.688,0,0,1,.635-.738.682.682,0,0,1,.737.635,1.863,1.863,0,0,1-.756,1.784A2.939,2.939,0,0,1,30.3-233.892Zm7.983-1.357c-.306-.055-3.015-.506-4.3.765a2.354,2.354,0,0,0-.6,2.189,5.926,5.926,0,0,0,3.458,4.424l.412.4-2.9,2.329a.688.688,0,0,0-.105.967.689.689,0,0,0,.967.105l3.031-2.436,2.722,2.643a.684.684,0,0,0,.479.195.687.687,0,0,0,.494-.209.688.688,0,0,0-.014-.973l-3.274-3.179.19-6.524A.689.689,0,0,0,38.287-235.248Zm-.97,6.081a4.545,4.545,0,0,1-2.571-3.359,1,1,0,0,1,.208-.978,2.908,2.908,0,0,1,1.9-.491c.206,0,.41.01.6.025Zm-55.631-17.09a1.376,1.376,0,0,1,1.376-1.376H.169a1.376,1.376,0,0,1,1.376,1.376A1.376,1.376,0,0,1,.169-244.88H-16.938A1.377,1.377,0,0,1-18.314-246.257Zm10.2,10.886-.714-.683h1.455Zm3.361.5H-6.629l.99-.912Zm-4.828,0h-1.674l.762-.87Zm6.221-.539-.625-.645h1.267Zm2.911.539H-1.957l.837-.839Zm2.684-5.312H-13.592a1.376,1.376,0,0,0-1.376,1.376v14.688a1.376,1.376,0,0,0,1.363,1.376l15.826.156h.013a1.378,1.378,0,0,0,.969-.4,1.377,1.377,0,0,0,.407-.978v-11.59a1.526,1.526,0,0,0,.136.074l.866.379a1.376,1.376,0,0,0,.552.116,1.373,1.373,0,0,0,.97-.4l4.889-4.858a3.41,3.41,0,0,0,1.439.325,3.445,3.445,0,0,0,3-1.737l5.584-9.8a3.416,3.416,0,0,0,.33-2.613,3.414,3.414,0,0,0-1.495-2l1.5-2.54,1.7.97a1.377,1.377,0,0,0,.683.181,1.365,1.365,0,0,0,.363-.049,1.376,1.376,0,0,0,.832-.645l3.634-6.373a1.377,1.377,0,0,0-.513-1.877l-3.555-2.027.546-.957,23.5,13.4h0a5.232,5.232,0,0,0,2.6.694,5.291,5.291,0,0,0,1.4-.189,5.231,5.231,0,0,0,3.184-2.47l10.4-18.245a5.273,5.273,0,0,0-1.966-7.183l-10.533-6.006c1.5-7.382-2.527-11.517-4.352-12.964a4.138,4.138,0,0,0-.138-.853,4.1,4.1,0,0,0-.635-1.318l1.025-1.528.93.531a1.376,1.376,0,0,0,.681.181,1.375,1.375,0,0,0,1.185-.675l2.612-4.411a1.374,1.374,0,0,0,.147-1.053,1.38,1.38,0,0,0-.648-.843l-4.292-2.448a1.376,1.376,0,0,0-1.866.495l-2.613,4.411a1.374,1.374,0,0,0-.147,1.053,1.378,1.378,0,0,0,.648.843l.966.551-.889,1.326a4.1,4.1,0,0,0-2.176-.005,4.1,4.1,0,0,0-2.5,1.937,4.1,4.1,0,0,0-.4,3.135,4.131,4.131,0,0,0,.636,1.313l-1.113,1.662,2.287,1.532,1.082-1.615a4.064,4.064,0,0,0,1.084.149c.081,0,.161-.011.242-.016a7.964,7.964,0,0,1,.853,4.4l-5.677-3.238a5.231,5.231,0,0,0-4-.5,5.226,5.226,0,0,0-3.184,2.47l-10.4,18.245a5.263,5.263,0,0,0,.025,5.247l-.9,1.583-3.617-2.064a1.378,1.378,0,0,0-1.046-.132,1.377,1.377,0,0,0-.832.646l-1.109,1.943-1.57-.9,1.109-1.943a1.373,1.373,0,0,0,.131-1.045,1.375,1.375,0,0,0-.645-.833l-3.725-2.124a1.376,1.376,0,0,0-1.878.514l-3.634,6.372a1.373,1.373,0,0,0-.131,1.045,1.371,1.371,0,0,0,.645.832l3.725,2.125a1.375,1.375,0,0,0,.681.181,1.376,1.376,0,0,0,1.2-.695l1.162-2.037,1.57.9L13-264.964a1.376,1.376,0,0,0,.513,1.877L15.6-261.9l-1.49,2.528-.332-.189a3.42,3.42,0,0,0-2.613-.33,3.418,3.418,0,0,0-2.081,1.615l-5.585,9.8a3.434,3.434,0,0,0,1.063,4.535l-1.07,4.58A1.376,1.376,0,0,0,2.234-240.181Zm-.577,6.09a.687.687,0,0,1-.065.208c-.01.021-.022.04-.034.061a.584.584,0,0,1-.037.063l-6.785,8.713c-.009.011-.023.015-.032.026a.662.662,0,0,1-.174.141.613.613,0,0,1-.066.036.682.682,0,0,1-.266.061h-.012a.665.665,0,0,1-.265-.063c-.023-.01-.043-.023-.065-.036a.683.683,0,0,1-.169-.136c-.01-.012-.026-.016-.036-.03l-6.828-8.713a.68.68,0,0,1-.138-.482.677.677,0,0,1,.156-.546l2.109-2.41a.69.69,0,0,1,.518-.235h9.477a.68.68,0,0,1,.273.063.631.631,0,0,1,.085.056.645.645,0,0,1,.122.081c.011.011.014.025.024.036s.021.013.029.023l2.038,2.56c.008.01.01.023.017.034a.658.658,0,0,1,.063.092.708.708,0,0,1,.027.082c.007.021.014.041.019.061a.674.674,0,0,1,.019.234C1.659-234.1,1.657-234.1,1.657-234.09ZM49.981-311.7l1.9,1.084-1.21,2.042-1.9-1.084Zm-5.993,8.912a1.367,1.367,0,0,1,.833-.645,1.349,1.349,0,0,1,.363-.05,1.38,1.38,0,0,1,1.328,1.014,1.378,1.378,0,0,1-.964,1.691,1.366,1.366,0,0,1-1.046-.132,1.369,1.369,0,0,1-.645-.833A1.365,1.365,0,0,1,43.987-302.787Zm3.973,3.731a4.166,4.166,0,0,0,.427-.455,9.848,9.848,0,0,1,2.723,8.68l-2.355-1.342A9.958,9.958,0,0,0,47.96-299.056ZM25.4-275.254,35.8-293.5a2.5,2.5,0,0,1,1.519-1.179,2.5,2.5,0,0,1,1.908.241l23.6,13.456a2.517,2.517,0,0,1,.939,3.429l-10.4,18.245a2.5,2.5,0,0,1-1.519,1.179,2.5,2.5,0,0,1-1.909-.241h0l-23.6-13.456A2.516,2.516,0,0,1,25.4-275.254ZM9.72-268.418l-1.334-.761,2.271-3.982,1.334.761ZM7.053-242.482l1.476.841-2.178,2.164Zm11.292-26.295,3.616,2.062h0l3.553,2.026-2.27,3.982-1.418-.809a1.383,1.383,0,0,0-.247-.184L18.2-263.627a1.357,1.357,0,0,0-.286-.12L16.073-264.8Zm-.35,8.245.99.565-1.49,2.527L16.5-258Zm-12.1,13.427,5.585-9.8a.686.686,0,0,1,.416-.323.683.683,0,0,1,.522.066l1.245.709a1.32,1.32,0,0,0,.246.184l3.381,1.929a1.379,1.379,0,0,0,.266.109l.839.478a.685.685,0,0,1,.323.416.682.682,0,0,1-.067.523l-5.584,9.8a.691.691,0,0,1-.94.257h0l-.663-.378h0l-4.649-2.651h0l-.663-.378A.689.689,0,0,1,5.893-247.105ZM-8.616-233.492l1.3,4.991-3.91-4.991Zm5.79,0h2.4l-3.759,4.827Zm-4.367,0h2.937l-1.526,5.4Z" transform="translate(18.314 316.942)"/></g></svg>