<svg width="37" height="87" viewBox="0 0 37 87" fill="none" xmlns="http://www.w3.org/2000/svg">
<path d="M32.2664 25.0191V21.9845C32.2664 18.913 29.4245 16.4868 26.2079 15.8541L24.5148 4.95441C24.0798 2.00395 21.6253 0 18.3067 0C14.9882 0 12.3514 2.22436 11.9172 5.17417L10.4056 15.8541C7.18897 16.4862 4.73356 18.913 4.73356 21.9838V25.0185C1.91749 26.3858 0 29.0594 0 32.1269V78.6274C0 82.8065 3.79169 86.2068 8.45337 86.2068H28.5466C33.2083 86.2068 37 82.8065 37 78.6274V32.0515C37 28.984 35.0825 26.3858 32.2664 25.0191ZM3.63313 42.608H32.9804V67.8755H3.63313V42.608ZM11.9172 19.3222H18.3751H25.1475C25.9933 19.3222 28.4654 21.2255 28.4654 21.9845V24.7721H8.14809V21.9838C8.14809 21.2248 11.0714 19.3222 11.9172 19.3222ZM3.63313 32.1269C3.63313 30.4583 6.45498 27.7447 8.71246 27.7447H28.4654C30.3271 27.7447 32.9804 30.4583 32.9804 32.1269V39.6353H3.63313V32.1269ZM15.5532 5.9453C15.5532 4.95441 16.5453 3.46809 18.3067 3.46809C20.0682 3.46809 21.1969 4.95441 21.1969 5.9453L22.3257 15.8541H14.4245L15.5532 5.9453ZM28.5466 82.7387H8.45337C6.89826 82.7387 3.63313 80.0217 3.63313 78.6274V71.3436H32.9804V78.6274C32.9804 80.0217 30.1017 82.7387 28.5466 82.7387Z" fill="#C62342"/>
<path d="M23.8233 51.3097C22.5073 49.2215 21.2097 47.4575 21.1554 47.3832C20.6339 46.6755 19.7514 46.25 18.8051 46.25C17.8596 46.25 16.9764 46.6755 16.4549 47.3832C16.4006 47.4575 15.1029 49.2215 13.787 51.3097C11.1902 55.4309 10.8564 57.1028 10.8564 58.0979C10.8564 61.8468 14.4222 64.8959 18.8051 64.8959C23.1881 64.8959 26.7531 61.8468 26.7531 58.0979C26.7538 57.1021 26.4208 55.4309 23.8233 51.3097ZM18.7576 61.6086C17.0645 61.6086 14.5244 59.4715 14.807 58.1405C15.3714 55.4824 15.9358 54.4915 18.7576 51.0234C21.5795 54.4915 22.1438 55.4824 22.7082 58.1405C22.9996 59.5131 20.4507 61.6086 18.7576 61.6086Z" fill="#C62342"/>
</svg>
