<svg width="77" height="90" viewBox="0 0 77 90" fill="none" xmlns="http://www.w3.org/2000/svg">
<path d="M62.9301 20.27C62.4621 19.4423 61.5903 18.9281 60.6543 18.9281H15.9119C14.976 18.9281 14.1041 19.4423 13.6363 20.27L10.4433 25.9184C10.0863 26.5498 10.2982 27.3572 10.9164 27.7217C11.5344 28.0863 12.3251 27.8699 12.682 27.2385L15.1411 22.8885L24.4733 39.3975H5.80878L9.75449 32.4172C10.1114 31.7858 9.89957 30.9783 9.28137 30.6139C8.66316 30.2489 7.87251 30.4657 7.51573 31.0971L2.74048 39.5448C2.28732 40.3462 2.38852 41.3485 2.99192 42.0389L36.6865 80.583C37.083 81.0367 37.652 81.297 38.2477 81.2974H38.2487C38.8439 81.2974 39.4127 81.0376 39.8095 80.5846L73.5726 42.04C74.1774 41.3495 74.2789 40.3467 73.8254 39.5443L62.9301 20.27ZM41.01 39.3977H28.9507L38.283 22.8885L47.6152 39.3977H47.5032C46.7893 39.3977 46.2107 39.9888 46.2107 40.7178C46.2107 41.4469 46.7895 42.0379 47.5032 42.0379H48.1255L38.2516 76.2657L28.4375 42.0381H41.01C41.7239 42.0381 42.3025 41.4469 42.3025 40.7179C42.3027 39.9888 41.7239 39.3977 41.01 39.3977ZM49.8542 38.0775L40.5219 21.5683H59.1865L49.8542 38.0775ZM50.8209 42.0381H70.1055L41.3511 74.8647L50.8209 42.0381ZM70.7575 39.3977H52.0929L61.4252 22.8886L70.7575 39.3977ZM17.3798 21.5683H36.0444L26.7121 38.0774L17.3798 21.5683ZM25.7437 42.0381L35.1577 74.8698L6.45676 42.0381H25.7437Z" fill="#DF2548"/>
<path d="M69.5652 76.3765C69.5038 76.3347 69.4389 76.2983 69.3712 76.2677C68.5506 75.897 67.7939 75.4591 67.122 74.9668C66.5422 74.5417 65.7345 74.6773 65.3181 75.2696C64.902 75.862 65.0347 76.6868 65.6147 77.112C66.0088 77.401 66.4255 77.6736 66.8618 77.9283C64.0702 79.5552 62.1342 81.8859 61.186 84.7675C60.2379 81.8864 58.3022 79.5559 55.5114 77.929C58.3026 76.3022 60.2383 73.9715 61.1862 71.0901C61.1993 71.1298 61.2127 71.1694 61.226 71.2089C61.4607 71.8975 62.1973 72.2612 62.8718 72.0216C63.546 71.7818 63.902 71.0293 63.6675 70.3406C63.5692 70.0528 63.483 69.7538 63.4105 69.4522L62.8732 67.2103C62.6823 66.4141 61.9886 65.8582 61.186 65.8582C60.3835 65.8582 59.6897 66.4141 59.4987 67.2104L58.9616 69.4522C58.0458 73.2731 55.2145 75.2675 53.0007 76.2679C52.933 76.2985 52.8682 76.3349 52.8065 76.3769C52.2971 76.7237 51.9932 77.304 51.9932 77.9292C51.9932 78.5545 52.2973 79.1347 52.8065 79.4815C52.868 79.5235 52.9329 79.5598 53.0007 79.5905C55.2145 80.5907 58.0456 82.5853 58.9616 86.4063L59.4989 88.6482C59.6898 89.4443 60.3835 90.0003 61.186 90.0003C61.9886 90.0003 62.6823 89.4443 62.8732 88.648L63.4105 86.4063C64.3263 82.5853 67.1576 80.5909 69.3714 79.5905C69.4389 79.5599 69.5038 79.5236 69.5654 79.4817C70.0748 79.1351 70.3789 78.5546 70.3789 77.9292C70.3789 77.3038 70.0746 76.7234 69.5652 76.3765Z" fill="#DF2548"/>
<path d="M75.6955 18.2208C75.6339 18.1788 75.569 18.1424 75.5012 18.1118C74.0691 17.4648 73.1802 16.4577 72.8592 15.1186L72.5885 13.9883V13.9882C72.4217 13.2931 71.8159 12.8076 71.1154 12.8076C71.1154 12.8076 71.1152 12.8076 71.1151 12.8076C70.4144 12.8078 69.8088 13.2935 69.6424 13.9883L69.3715 15.1186C69.0505 16.4577 68.1616 17.4648 66.7295 18.1118C66.6618 18.1424 66.5968 18.1788 66.5352 18.2208C66.0997 18.5173 65.8397 19.0137 65.8398 19.5483C65.8398 20.0828 66.1001 20.5791 66.5357 20.8754C66.5971 20.9173 66.6618 20.9537 66.7295 20.9843C68.1617 21.6313 69.0505 22.6384 69.3715 23.9776L69.6424 25.1076C69.809 25.8028 70.4146 26.2883 71.1152 26.2885H71.1156C71.8162 26.2885 72.4219 25.8031 72.5886 25.1077L72.8595 23.9776C73.1805 22.6385 74.0694 21.6315 75.5015 20.9844C75.569 20.9538 75.6339 20.9176 75.6953 20.8756C76.1309 20.5793 76.391 20.083 76.3911 19.5485C76.391 19.0136 76.1309 18.5173 75.6955 18.2208ZM71.1152 21.4471C70.6839 20.7223 70.1155 20.0855 69.4198 19.5481C70.1156 19.0108 70.6841 18.3739 71.1154 17.6492C71.5467 18.3739 72.1152 19.0108 72.8108 19.5481C72.115 20.0855 71.5465 20.7222 71.1152 21.4471Z" fill="#DF2548"/>
<path d="M5.84251 15.2933L6.23061 16.9123C6.40788 17.6518 7.05242 18.1684 7.79781 18.1684C8.54337 18.1684 9.18791 17.6518 9.36501 16.9123L9.75311 15.2933C10.3799 12.6787 12.3294 11.3085 13.8546 10.6193C13.9222 10.5887 13.9871 10.5523 14.0485 10.5103C14.5165 10.1918 14.7958 9.65865 14.7958 9.08437C14.7958 8.50992 14.5167 7.97678 14.0487 7.65809C13.9871 7.61607 13.9222 7.57969 13.8544 7.5491C12.3294 6.86004 10.3799 5.48982 9.75311 2.87525L9.36501 1.25631C9.18774 0.516621 8.5432 0 7.79764 0C7.05225 0 6.40771 0.516621 6.23044 1.25613L5.84234 2.87508C5.21587 5.48965 3.26626 6.85986 1.74123 7.54892C1.67359 7.57951 1.60853 7.6159 1.54709 7.65791C1.07896 7.97678 0.799805 8.50992 0.799805 9.08437C0.799805 9.65883 1.0793 10.192 1.54726 10.5105C1.6087 10.5523 1.67359 10.5887 1.74105 10.6193C3.26626 11.3084 5.21587 12.6787 5.84251 15.2933ZM7.79764 5.14389C8.50998 6.73646 9.66051 8.06783 11.2034 9.0842C9.66069 10.1006 8.50998 11.4321 7.79764 13.0247C7.08529 11.4321 5.93459 10.1007 4.39183 9.0842C5.93459 8.06783 7.08529 6.73629 7.79764 5.14389Z" fill="#DF2548"/>
</svg>
