<svg width="80" height="80" viewBox="0 0 80 80" fill="none" xmlns="http://www.w3.org/2000/svg">
<g clip-path="url(#clip0)">
<path d="M51.7383 13.3833C44.9899 13.3748 38.4796 15.9322 33.4757 20.5569C27.7075 13.0092 17.2813 11.1474 9.34874 16.2496C1.41554 21.3512 -1.44691 31.7588 2.72447 40.3337C6.89585 48.9079 16.7463 52.8639 25.5183 49.4882C25.8884 50.7288 26.3457 51.9402 26.8859 53.1137C21.5508 56.7009 19.182 63.4588 21.075 69.6891C22.968 75.9188 28.6668 80.1201 35.0522 79.9926C41.4382 79.8651 46.9714 75.44 48.6249 69.1388C58.7193 70.3267 68.6277 65.7084 74.3641 57.142C80.0998 48.5755 80.7202 37.4693 75.9749 28.292C71.2296 19.1147 61.8996 13.3755 51.7383 13.3833ZM3.47288 32.0359C3.46205 25.1596 7.76465 19.0496 14.1507 16.8722C20.5368 14.6948 27.5706 16.9399 31.6063 22.4435C26.9311 27.5855 24.3368 34.3454 24.3444 41.3622C24.3483 43.2156 24.5317 45.0632 24.8909 46.8795C20.0743 48.8513 14.6125 48.2496 10.3182 45.2733C6.02386 42.2977 3.45887 37.3366 3.47288 32.0359ZM34.7802 77.3351C28.2961 77.3351 23.04 71.9667 23.04 65.3441C23.04 58.7221 28.2961 53.3531 34.7802 53.3531C41.2644 53.3531 46.5205 58.7221 46.5205 65.3441C46.5135 71.9635 41.2612 77.3279 34.7802 77.3351ZM51.7383 66.6764C50.8473 66.6699 49.9574 66.6146 49.0721 66.5099C49.102 66.1248 49.1294 65.7377 49.1294 65.3441C49.1294 60.4305 46.7173 55.8435 42.707 53.1287C38.6962 50.414 33.6203 49.9332 29.1891 51.8478C28.5407 50.4101 28.0285 48.9125 27.6604 47.3752C27.1916 45.4067 26.954 43.388 26.9534 41.3622C26.9534 27.3819 38.0503 16.048 51.7383 16.048C65.427 16.048 76.5233 27.3819 76.5233 41.3622C76.5233 55.3432 65.427 66.6764 51.7383 66.6764Z" fill="#DF2548"/>
<path d="M12.6042 60.0148C12.6042 59.279 12.0201 58.6825 11.2997 58.6825C10.5793 58.6825 9.99523 59.279 9.99523 60.0148C9.99523 62.2228 8.24299 64.0118 6.08182 64.0118C5.36143 64.0118 4.77734 64.6084 4.77734 65.3441C4.77734 66.0799 5.36143 66.6765 6.08182 66.6765C8.24299 66.6765 9.99523 68.4661 9.99523 70.6734C9.99523 71.4092 10.5793 72.0058 11.2997 72.0058C12.0201 72.0058 12.6042 71.4092 12.6042 70.6734C12.6042 68.4661 14.3564 66.6765 16.5176 66.6765C17.238 66.6765 17.8221 66.0799 17.8221 65.3441C17.8221 64.6084 17.238 64.0118 16.5176 64.0118C14.3564 64.0118 12.6042 62.2228 12.6042 60.0148ZM11.2997 66.7181C10.9201 66.1951 10.4666 65.7325 9.9551 65.3441C10.4666 64.9564 10.9201 64.4932 11.2997 63.9708C11.68 64.4932 12.1328 64.9564 12.6449 65.3441C12.1328 65.7325 11.68 66.1951 11.2997 66.7181Z" fill="#DF2548"/>
<path d="M64.7823 12.051C64.7823 12.7868 65.3664 13.3833 66.0868 13.3833C66.8072 13.3833 67.3913 12.7868 67.3913 12.051C67.3913 9.84369 69.1435 8.05403 71.3047 8.05403C72.0251 8.05403 72.6092 7.45747 72.6092 6.7217C72.6092 5.98593 72.0251 5.38937 71.3047 5.38937C69.1435 5.38937 67.3913 3.60036 67.3913 1.39239C67.3913 0.656614 66.8072 0.0600586 66.0868 0.0600586C65.3664 0.0600586 64.7823 0.656614 64.7823 1.39239C64.7823 3.60036 63.0301 5.38937 60.8689 5.38937C60.1485 5.38937 59.5645 5.98593 59.5645 6.7217C59.5645 7.45747 60.1485 8.05403 60.8689 8.05403C63.0301 8.05403 64.7823 9.84369 64.7823 12.051ZM66.0868 5.34839C66.4671 5.87078 66.9199 6.33397 67.432 6.7217C66.9199 7.11008 66.4671 7.57262 66.0868 8.09566C65.7072 7.57262 65.2537 7.11008 64.7422 6.7217C65.2537 6.33397 65.7072 5.87078 66.0868 5.34839Z" fill="#DF2548"/>
<path d="M68.6963 41.3623C66.5351 41.3623 64.7829 39.5733 64.7829 37.3653C64.7829 36.6295 64.1988 36.033 63.4784 36.033C62.758 36.033 62.1739 36.6295 62.1739 37.3653C62.1739 39.5733 60.4217 41.3623 58.2605 41.3623C57.5401 41.3623 56.9561 41.9588 56.9561 42.6946C56.9561 43.4304 57.5401 44.0269 58.2605 44.0269C60.4217 44.0269 62.1739 45.8166 62.1739 48.0239C62.1739 48.7597 62.758 49.3562 63.4784 49.3562C64.1988 49.3562 64.7829 48.7597 64.7829 48.0239C64.7829 45.8166 66.5351 44.0269 68.6963 44.0269C69.4167 44.0269 70.0008 43.4304 70.0008 42.6946C70.0008 41.9588 69.4167 41.3623 68.6963 41.3623ZM63.4784 44.0686C63.0988 43.5455 62.6453 43.083 62.1338 42.6946C62.6453 42.3069 63.0988 41.8437 63.4784 41.3213C63.8587 41.8437 64.3115 42.3069 64.8236 42.6946C64.3115 43.083 63.8587 43.5455 63.4784 44.0686Z" fill="#DF2548"/>
<path d="M54.3465 30.7036C54.3465 29.9679 53.7624 29.3713 53.042 29.3713C50.8809 29.3713 49.1286 27.5823 49.1286 25.3743C49.1286 24.6385 48.5445 24.042 47.8241 24.042C47.1037 24.042 46.5197 24.6385 46.5197 25.3743C46.5197 27.5823 44.7674 29.3713 42.6062 29.3713C41.8858 29.3713 41.3018 29.9679 41.3018 30.7036C41.3018 31.4394 41.8858 32.036 42.6062 32.036C44.7674 32.036 46.5197 33.8256 46.5197 36.0329C46.5197 36.7687 47.1037 37.3653 47.8241 37.3653C48.5445 37.3653 49.1286 36.7687 49.1286 36.0329C49.1286 33.8256 50.8809 32.036 53.042 32.036C53.7624 32.036 54.3465 31.4394 54.3465 30.7036ZM47.8241 32.0776C47.4445 31.5546 46.991 31.092 46.4795 30.7036C46.991 30.3159 47.4445 29.8527 47.8241 29.3303C48.2044 29.8527 48.6573 30.3159 49.1694 30.7036C48.6573 31.092 48.2044 31.5546 47.8241 32.0776Z" fill="#DF2548"/>
<path d="M16.5176 54.6855H19.1265V57.3502H16.5176V54.6855Z" fill="#DF2548"/>
<path d="M3.47266 73.3381H6.0816V76.0028H3.47266V73.3381Z" fill="#DF2548"/>
<path d="M77.8278 69.3412C77.8278 67.1339 76.0756 65.3442 73.9144 65.3442C71.7532 65.3442 70.001 67.1339 70.001 69.3412C70.001 71.5492 71.7532 73.3382 73.9144 73.3382C76.0756 73.3382 77.8278 71.5492 77.8278 69.3412ZM72.6099 69.3412C72.6099 68.6055 73.194 68.0089 73.9144 68.0089C74.6348 68.0089 75.2189 68.6055 75.2189 69.3412C75.2189 70.077 74.6348 70.6736 73.9144 70.6736C73.194 70.6736 72.6099 70.077 72.6099 69.3412Z" fill="#DF2548"/>
<path d="M39.9973 9.38632C39.9973 6.44323 37.661 4.05701 34.7794 4.05701C31.8979 4.05701 29.5615 6.44323 29.5615 9.38632C29.5615 12.3301 31.8979 14.7156 34.7794 14.7156C37.661 14.7156 39.9973 12.3301 39.9973 9.38632ZM32.1705 9.38632C32.1705 7.91477 33.3386 6.72166 34.7794 6.72166C36.2202 6.72166 37.3884 7.91477 37.3884 9.38632C37.3884 10.8585 36.2202 12.051 34.7794 12.051C33.3386 12.051 32.1705 10.8585 32.1705 9.38632Z" fill="#DF2548"/>
<path d="M47.8242 6.72168H50.4332V9.38634H47.8242V6.72168Z" fill="#DF2548"/>
<path d="M53.042 56.0178H55.6509V58.6825H53.042V56.0178Z" fill="#DF2548"/>
<path d="M60.8691 73.3381H63.4781V76.0028H60.8691V73.3381Z" fill="#DF2548"/>
<path d="M16.5176 34.7007H19.1265V37.3653H16.5176V34.7007Z" fill="#DF2548"/>
<path d="M6.08183 34.821L8.69078 34.5809C8.68441 34.5172 8.16912 28.1763 11.6061 24.3218C13.5781 22.2764 16.3208 21.2024 19.1266 21.3774V18.7127C15.5832 18.5215 12.1335 19.9143 9.6755 22.5288C5.46463 27.2401 6.05954 34.5146 6.08183 34.821Z" fill="#DF2548"/>
<path d="M53.042 18.7126V21.3773C53.6942 21.3773 68.8982 21.6616 71.3193 40.2062L73.9046 39.8542C71.174 18.9553 53.2235 18.7126 53.042 18.7126Z" fill="#DF2548"/>
</g>
<defs>
<clipPath id="clip0">
<rect x="0.816406" width="78.3274" height="80" fill="white"/>
</clipPath>
</defs>
</svg>
